<?xml version="1.0" encoding="utf-8"?>
<!-- Generator: Adobe Illustrator 25.2.1, SVG Export Plug-In . SVG Version: 6.00 Build 0)  -->
<svg version="1.1" id="Ebene_1" xmlns="http://www.w3.org/2000/svg" xmlns:xlink="http://www.w3.org/1999/xlink" x="0px" y="0px"
	 viewBox="0 0 1000 1000" style="enable-background:new 0 0 1000 1000;" xml:space="preserve">
<g>
	<path style="fill:#DDDDDD;" d="M756.5,188.2c2.2,1.3,2.3-2.8,0.9-7.8c-1.4-5.1-5-81.7-5.3-82.2c-8-14.7-20.2-17.8-33.2-8.4
		c-1.3,0.9-0.9,17.3,1.2,49C733.1,165.1,745.2,181.6,756.5,188.2z"/>
	<path style="fill:#DDDDDD;" d="M963.6,576.9c-2.5-19.8-9.2-32.7-13.4-40.7c-25.9-48.6-86.8-150.8-97.6-169.6
		c-3.3-5-7.5-12.9-10.8-23.8c-4.2-11.9-5.8-23.8-6.7-26.8c-0.8-5-0.8-5-1.7-8.9c0-2-2.5-15.9-8.3-27.8c-5-10.9-10.8-17.9-15-23.8
		c-2-2.3-4-4.5-6.1-6.7c9.2-2.1,15.4-4.3,15.4-4.3s-21.7-4.1-35.2-16.9c-1-0.9-2.1-1.8-3.2-2.6c0.5,0,0.9-0.1,1.4-0.1
		c18.6-0.8,42.3,4.3,42.3,4.3s-27.6-17.9-57.6-19.9c-0.6,0-1.2-0.1-1.9-0.1c19.4-5.9,34-15.4,34-15.4s-23.7,5.1-42.3,4.3
		c-2.7-0.1-5.3-0.3-7.9-0.5c-15.7-14.8-28.4-29.1-33.3-44.3c-1.4-4.4-3.5-9.1-6-14c-0.3-0.5-3.1-79.9-3.4-80.4
		C689,26.9,653.2,68,624,73c-91.1,15.8-148.8,78.2-228,139.7c-5.3,4.4-27.6,31.8-65.4,66.6c-8.1,7.4-17.2,18.3-27.3,32.5
		c-42.9,19.1-85.3,44.6-131.5,64.2c-83.6,35.5-103.1,22.8-103.1,22.8s39.5,49.9,117.4,64.1c-19,15.4-38.2,31.2-59.3,45.6
		c-67.8,46.4-91,39.2-91,39.2s49.9,31.5,122.9,32.7c-14.1,23.3-27.8,47.5-44.7,70.3c-46.6,63-71.8,60.3-71.8,60.3s68,25.6,144,5.9
		c12,69,41.4,138.1,50,173.7c26.7-9.9,248.5,40.1,350.3,58.9c16.2,2.9,35.1,4.4,56.6,3c6.1-0.4-76.3-160.8-247.2-481.1
		C588.5,788.1,687,945.8,691.5,944.7c27.5-7.1,58.2-19.2,92-38.7c-15.6-4.6-94.1-110.7-235.7-318.3c-15.7-27.8-23.6-54.7-23.6-80.8
		c0-29.3,11.3-61.9,33.9-97.7c0.9,22,3.3,40.1,7,54.1c5.6,21,75.6,106.7,97.2,114.6c34.9,12.8,20.4-9,73.8,9.8
		c10,3,21.7,7.9,34.2,19.8c15.9,14.9,32.3,33.7,32.3,33.7c2.5,5,3.3,6.9,5.8,12.9c3.3,6.9,24.9,35.9,34.1,43.8
		c9.2,7.9,17.5,11.9,23.4,13.9c5,2,9.2,3,10,3c11.7,3,21.7,2,26.7,2c5.7-1,30-26.1,34.7-29.7c3.8-6.3,6.5-11.9,7.9-14.9
		c7.5-15.9,10-29.8,14.2-52.6C963.6,603.6,965.2,591.7,963.6,576.9z M714,279.4c0-8.5,16.2-16.3,19.9-9.2l50.8,84.6
		c8.2,12.8,4.5,12.8-7.7,7.7l-47.7-24.7c-9.4-8.5-15.3-22.8-15.3-38.4V279.4z M674.8,471.5c1.1-1.4,30.5-24.6,61.3,20.9
		c19.5,28.8,38.9,53.7,57.6,75.3C732.3,518.1,674.5,471.9,674.8,471.5z M950.2,595.6c-1.7,11.5-0.7,6.3-1.5,9.9
		c-1.5,6.3-4.1,20.1-5.6,25.6c-2.3,5.1-6.2,5.1-7.3,0.7c0-1.8-5-18.3-7.9-25.5c-2.2-5.4,5.1-24.2,10.2-27.8
		C943.6,575.1,951.8,584.1,950.2,595.6z"/>
</g>
<path id="Path-34" style="fill-rule:evenodd;clip-rule:evenodd;fill:#BEBEBE;" d="M42.2,711.1c22.2,3.3,52.4,2.2,90.5-3.3
	c57.2-8.2,80.2-22,90.6-24c6.9-1.4,17.5-1.4,31.7,0c-13.6,10.4-27.8,18.4-42.6,24c-22.3,8.4-34,12.7-58.6,15.4s-39.5,1.8-69.3-1.6
	C64.5,719.4,50.5,715.9,42.2,711.1z"/>
<path id="Path-35" style="fill-rule:evenodd;clip-rule:evenodd;fill:#BEBEBE;" d="M35.8,547.8c20.8,7.5,39.3,12.1,55.4,13.9
	c24.2,2.6,33.2-3.2,51.1,3.5c11.9,4.5,17.7,9.7,17.2,15.8c-8.4,0.4-19.5-0.4-33.1-2.3c-20.4-2.9-21-3.4-37.2-7.6
	c-16.2-4.2-14.5-3.7-28.4-9.5C51.5,557.7,43.2,553.1,35.8,547.8z"/>
<path id="Path-36" style="fill-rule:evenodd;clip-rule:evenodd;fill:#BEBEBE;" d="M68.7,398.8c15.4,5.9,30.1,11.6,44.1,17
	c20.9,8.1,28.2,8.1,39.4,18.7c7.5,7.1,18.8,16.5,33.9,28.4c-21-3.7-36.5-7.9-46.6-12.6c-15-7-16.5-8-28.9-15.8
	c-12.4-7.8-17.8-12.6-27.4-20.9C76.8,408.1,72,403.1,68.7,398.8z"/>
<path id="Path-25" style="fill-rule:evenodd;clip-rule:evenodd;fill:#BEBEBE;" d="M645.6,953.1c-20-44.2-40.4-86.1-61.1-125.9
	c-20.7-39.8-57.5-109.4-110.3-209L396,471.4l87.6,458.1l122.6,23.6H645.6z"/>
<path id="Path-25-Copy" style="fill-rule:evenodd;clip-rule:evenodd;fill:#BEBEBE;" d="M783.5,906c-33.2-39.8-79.7-100.8-139.4-183
	c-59.7-82.2-91.5-127.4-95.5-135.5l-17.1-39.2l-7.9-35.8l4.2-35l30.2-68.2l-54.1,86l187.6,449.4c9.4-1.4,24.6-6.6,45.6-15.5
	C758.2,920.2,773.6,912.5,783.5,906z"/>
<path id="Path-26" style="fill-rule:evenodd;clip-rule:evenodd;fill:#BEBEBE;" d="M558,409.2c0.2,9.8,5.1,21.8,14.6,36.1
	c14.3,21.4,66.1,87.8,84.6,105.5c12.4,11.8,31.1,21.9,56.1,30.3c-6.1-1-9.9-1.5-11.5-1.5c-3.8,0-8,0.9-13.1,1.7
	c-11.2,1.8-13.6,0.9-26.4-3.4c-12.8-4.2-38.5-33.8-64.8-63.9c-26.3-30.1-29.7-36.7-33.5-51.4C561.4,452.8,559.4,435,558,409.2z"/>
<polygon id="Path-28" style="fill-rule:evenodd;clip-rule:evenodd;fill:#BEBEBE;" points="811.5,584.2 671.6,472.9 689.2,478.8 
	808,578.1 "/>
<path id="Path-29" style="fill-rule:evenodd;clip-rule:evenodd;fill:#9C9C9C;" d="M754.3,186.7L724.8,86.3c-1.6,0.6-3.1,1.3-4.7,2.2
	c-1.6,0.8-2.8,1.1-3.7,0.7c-0.4,6.4-0.4,14.2,0,23.3s1,18.2,2,27.2c4.2,9.3,10.2,19,17.9,29.3C744,179.2,750,185.1,754.3,186.7z"/>
<polygon id="Path-30" style="fill-rule:evenodd;clip-rule:evenodd;fill:#BEBEBE;" points="713,240.7 795.6,374.3 726,248.4 "/>
<path id="Path-31" style="fill-rule:evenodd;clip-rule:evenodd;fill:#BEBEBE;" d="M922.9,596.9c4.8,8.8,8.2,15.8,10.1,21.2
	c2,5.4,3.9,13.1,5.8,23.3"/>
</svg>
