<?xml version="1.0" encoding="utf-8"?>
<!-- Generator: Adobe Illustrator 25.2.1, SVG Export Plug-In . SVG Version: 6.00 Build 0)  -->
<svg version="1.1" id="Ebene_1" xmlns="http://www.w3.org/2000/svg" xmlns:xlink="http://www.w3.org/1999/xlink" x="0px" y="0px"
	 viewBox="0 0 512 512" style="enable-background:new 0 0 512 512;" xml:space="preserve">
<g>
	<path style="fill:#222222;" d="M397,84.7c1.2,0.7,1.3-1.5,0.5-4.3c-0.8-2.8-2.7-44.9-2.9-45.2c-4.4-8.1-11.1-9.8-18.2-4.6
		c-0.7,0.5-0.5,9.5,0.7,26.9C384.1,72,390.8,81,397,84.7z"/>
	<path style="fill:#222222;" d="M510.8,298.3c-1.4-10.9-5.1-18-7.4-22.4c-14.2-26.7-47.7-82.9-53.6-93.2c-1.8-2.7-4.1-7.1-5.9-13.1
		c-2.3-6.5-3.2-13.1-3.7-14.7c-0.4-2.7-0.4-2.7-0.9-4.9c0-1.1-1.4-8.7-4.6-15.3c-2.7-6-5.9-9.8-8.2-13.1c-1.1-1.3-2.2-2.5-3.4-3.7
		c5.1-1.2,8.5-2.4,8.5-2.4s-11.9-2.3-19.3-9.3c-0.5-0.5-1.2-1-1.8-1.4c0.3,0,0.5-0.1,0.8-0.1c10.2-0.4,23.2,2.4,23.2,2.4
		s-15.2-9.8-31.7-10.9c-0.3,0-0.7-0.1-1-0.1c10.7-3.2,18.7-8.5,18.7-8.5s-13,2.8-23.2,2.4c-1.5-0.1-2.9-0.2-4.3-0.3
		c-8.6-8.1-15.6-16-18.3-24.3c-0.8-2.4-1.9-5-3.3-7.7c-0.2-0.3-1.7-43.9-1.9-44.2c-9.5-17.6-29.2,5-45.2,7.7
		c-50.1,8.7-81.8,43-125.3,76.8c-2.9,2.4-15.2,17.5-35.9,36.6c-4.5,4.1-9.5,10.1-15,17.9c-23.6,10.5-46.9,24.5-72.3,35.3
		c-45.9,19.5-56.7,12.5-56.7,12.5s21.7,27.4,64.5,35.2c-10.4,8.5-21,17.1-32.6,25.1c-37.3,25.5-50,21.5-50,21.5s27.4,17.3,67.5,18
		c-7.7,12.8-15.3,26.1-24.6,38.6C18.2,373.5,4.4,372,4.4,372s37.4,14.1,79.1,3.2c6.6,37.9,22.8,75.9,27.5,95.5
		c14.7-5.4,136.6,22,192.5,32.4c8.9,1.6,19.3,2.4,31.1,1.6c3.4-0.2-41.9-88.4-135.9-264.4c105.9,174.1,160,260.7,162.5,260.1
		c15.1-3.9,32-10.6,50.6-21.3c-8.6-2.5-51.7-60.8-129.5-174.9c-8.6-15.3-13-30.1-13-44.4c0-16.1,6.2-34,18.6-53.7
		c0.5,12.1,1.8,22,3.8,29.7c3.1,11.5,41.6,58.6,53.4,63c19.2,7,11.2-4.9,40.6,5.4c5.5,1.6,11.9,4.3,18.8,10.9
		c8.7,8.2,17.8,18.5,17.8,18.5c1.4,2.7,1.8,3.8,3.2,7.1c1.8,3.8,13.7,19.7,18.7,24.1c5.1,4.3,9.6,6.5,12.9,7.6
		c2.7,1.1,5.1,1.6,5.5,1.6c6.4,1.6,11.9,1.1,14.7,1.1c3.1-0.5,16.5-14.3,19.1-16.3c2.1-3.5,3.6-6.5,4.3-8.2
		c4.1-8.7,5.5-16.4,7.8-28.9C510.8,313,511.7,306.4,510.8,298.3z M373.6,134.8c0-4.7,8.9-9,10.9-5.1l27.9,46.5c4.5,7,2.5,7-4.2,4.2
		L382,166.9c-5.2-4.7-8.4-12.5-8.4-21.1V134.8z M352.1,240.4c0.6-0.8,16.8-13.5,33.7,11.5c10.7,15.8,21.4,29.5,31.7,41.4
		C383.7,266,351.9,240.6,352.1,240.4z M503.4,308.6c-0.9,6.3-0.4,3.5-0.8,5.4c-0.8,3.5-2.3,11-3.1,14.1c-1.3,2.8-3.4,2.8-4,0.4
		c0-1-2.7-10.1-4.3-14c-1.2-3,2.8-13.3,5.6-15.3C499.8,297.3,504.3,302.2,503.4,308.6z"/>
</g>
<path id="Path-34" style="fill-rule:evenodd;clip-rule:evenodd;fill:#414141;" d="M4.4,372c12.2,1.8,28.8,1.2,49.7-1.8
	c31.4-4.5,44.1-12.1,49.8-13.2c3.8-0.8,9.6-0.8,17.4,0c-7.5,5.7-15.3,10.1-23.4,13.2c-12.3,4.6-18.7,7-32.2,8.5s-21.7,1-38.1-0.9
	C16.6,376.6,8.9,374.7,4.4,372z"/>
<path id="Path-35" style="fill-rule:evenodd;clip-rule:evenodd;fill:#414141;" d="M0.9,282.3c11.4,4.1,21.6,6.7,30.4,7.6
	c13.3,1.4,18.2-1.8,28.1,1.9c6.5,2.5,9.7,5.3,9.5,8.7c-4.6,0.2-10.7-0.2-18.2-1.3c-11.2-1.6-11.5-1.9-20.4-4.2
	c-8.9-2.3-8-2-15.6-5.2C9.5,287.7,4.9,285.2,0.9,282.3z"/>
<path id="Path-36" style="fill-rule:evenodd;clip-rule:evenodd;fill:#414141;" d="M18.9,200.4c8.5,3.2,16.5,6.4,24.2,9.3
	c11.5,4.5,15.5,4.5,21.7,10.3c4.1,3.9,10.3,9.1,18.6,15.6c-11.5-2-20.1-4.3-25.6-6.9c-8.2-3.8-9.1-4.4-15.9-8.7
	c-6.8-4.3-9.8-6.9-15.1-11.5C23.4,205.5,20.8,202.8,18.9,200.4z"/>
<path id="Path-25" style="fill-rule:evenodd;clip-rule:evenodd;fill:#414141;" d="M336,505.1c-11-24.3-22.2-47.3-33.6-69.2
	c-11.4-21.9-31.6-60.1-60.6-114.9l-43-80.7L247,492.1l67.4,13H336z"/>
<path id="Path-25-Copy" style="fill-rule:evenodd;clip-rule:evenodd;fill:#414141;" d="M411.8,479.2
	c-18.2-21.9-43.8-55.4-76.6-100.6c-32.8-45.2-50.3-70-52.5-74.5l-9.4-21.5l-4.3-19.7l2.3-19.2l16.6-37.5l-29.7,47.3l103.1,247
	c5.2-0.8,13.5-3.6,25.1-8.5C397.9,487,406.4,482.7,411.8,479.2z"/>
<path id="Path-26" style="fill-rule:evenodd;clip-rule:evenodd;fill:#414141;" d="M287.9,206.1c0.1,5.4,2.8,12,8,19.8
	c7.9,11.8,36.3,48.3,46.5,58c6.8,6.5,17.1,12,30.8,16.7c-3.4-0.5-5.4-0.8-6.3-0.8c-2.1,0-4.4,0.5-7.2,0.9c-6.2,1-7.5,0.5-14.5-1.9
	c-7-2.3-21.2-18.6-35.6-35.1c-14.5-16.5-16.3-20.2-18.4-28.3C289.7,230.1,288.6,220.3,287.9,206.1z"/>
<polygon id="Path-28" style="fill-rule:evenodd;clip-rule:evenodd;fill:#414141;" points="427.2,302.3 350.3,241.1 360,244.4 
	425.3,298.9 "/>
<path id="Path-29" style="fill-rule:evenodd;clip-rule:evenodd;fill:#414141;" d="M395.8,83.8l-16.2-55.2c-0.9,0.3-1.7,0.7-2.6,1.2
	c-0.9,0.4-1.5,0.6-2,0.4c-0.2,3.5-0.2,7.8,0,12.8c0.2,5,0.5,10,1.1,14.9c2.3,5.1,5.6,10.4,9.8,16.1
	C390.1,79.7,393.4,82.9,395.8,83.8z"/>
<polygon id="Path-30" style="fill-rule:evenodd;clip-rule:evenodd;fill:#414141;" points="373.1,113.5 418.5,186.9 380.2,117.7 "/>
<path id="Path-31" style="fill-rule:evenodd;clip-rule:evenodd;fill:#414141;" d="M488.4,298.3c2.6,4.8,4.5,8.7,5.6,11.7
	c1.1,3,2.1,7.2,3.2,12.8"/>
</svg>
