<?xml version="1.0" standalone="no"?>
<!DOCTYPE svg PUBLIC "-//W3C//DTD SVG 20010904//EN"
 "http://www.w3.org/TR/2001/REC-SVG-20010904/DTD/svg10.dtd">
<svg version="1.0" xmlns="http://www.w3.org/2000/svg"
 width="700.000000pt" height="700.000000pt" viewBox="0 0 700.000000 700.000000"
 preserveAspectRatio="xMidYMid meet">
<metadata>
Created by potrace 1.11, written by Peter Selinger 2001-2013
</metadata>
<g transform="translate(0.000000,700.000000) scale(0.100000,-0.100000)"
fill="#000000" stroke="none">
<path d="M4749 6660 c-14 -4 -84 -37 -155 -73 -154 -79 -161 -82 -278 -108
-146 -33 -154 -36 -261 -76 -283 -107 -485 -240 -975 -643 -91 -75 -198 -162
-238 -194 -41 -32 -97 -84 -125 -114 -29 -31 -144 -149 -257 -262 -113 -113
-234 -242 -270 -286 l-65 -82 -400 -200 c-447 -224 -580 -284 -770 -347 -202
-67 -381 -97 -442 -74 -40 15 -25 -7 58 -85 183 -172 404 -288 651 -341 l77
-17 -32 -27 c-63 -54 -264 -208 -347 -266 -263 -186 -524 -308 -638 -300 -42
3 -21 -13 91 -69 73 -36 155 -68 238 -90 109 -30 163 -40 314 -62 17 -2 61 -6
99 -9 37 -2 70 -6 73 -9 3 -2 -8 -25 -24 -51 -15 -25 -32 -54 -38 -63 -100
-172 -218 -347 -308 -457 -130 -161 -304 -306 -382 -321 -19 -3 -35 -10 -35
-14 0 -11 79 -37 150 -50 30 -6 66 -12 80 -15 13 -3 54 -7 90 -10 36 -4 72 -8
81 -11 27 -7 278 -7 353 1 38 4 107 15 153 24 46 10 86 15 88 12 1 -3 6 -24 9
-46 4 -22 16 -78 27 -125 11 -47 23 -95 25 -108 8 -43 103 -348 183 -594 44
-133 85 -262 92 -284 l12 -42 81 1 c72 0 120 -4 231 -18 17 -2 50 -7 75 -10
25 -3 54 -7 65 -9 11 -2 45 -7 75 -12 30 -4 57 -8 60 -9 3 -1 25 -5 50 -9 97
-16 716 -133 800 -150 82 -18 130 -27 156 -32 16 -3 67 -14 114 -24 71 -16
570 -115 682 -136 18 -3 69 -12 113 -20 44 -8 143 -14 222 -14 l142 0 -31 67
c-16 38 -39 88 -50 113 -34 76 -324 657 -393 790 -37 69 -98 186 -137 260 -39
74 -90 171 -113 215 -23 44 -66 125 -95 180 -29 55 -70 132 -90 170 -21 39
-63 120 -95 180 -66 127 -134 254 -180 340 -18 33 -58 110 -90 170 -32 61 -70
133 -85 160 -15 28 -48 88 -72 135 -163 307 -232 437 -241 448 -5 7 -8 14 -6
17 3 2 40 -55 84 -128 159 -262 287 -473 310 -507 12 -19 105 -170 205 -335
313 -512 612 -998 640 -1040 15 -22 29 -45 31 -50 2 -6 67 -111 144 -233 77
-122 145 -230 150 -239 72 -128 414 -643 431 -650 35 -13 286 79 489 179 170
84 165 78 124 130 -19 24 -39 49 -47 56 -7 8 -25 30 -40 50 -15 21 -29 39 -32
42 -12 11 -223 284 -329 425 -62 83 -119 158 -127 168 -16 20 -340 461 -481
655 -98 136 -458 646 -512 725 -18 27 -62 115 -98 195 -81 184 -118 344 -108
462 6 81 13 132 20 167 5 21 126 301 184 427 l28 58 6 -108 c15 -256 58 -378
181 -519 20 -22 39 -44 43 -50 65 -83 282 -321 357 -392 138 -130 172 -142
392 -130 70 4 106 1 158 -13 135 -38 231 -77 264 -107 7 -7 17 -13 22 -13 5 0
70 -61 145 -136 108 -110 141 -149 166 -202 17 -36 42 -82 57 -101 70 -97 108
-147 119 -159 7 -7 18 -21 25 -30 25 -33 113 -104 158 -127 68 -35 147 -55
232 -61 103 -7 104 -6 274 157 98 94 145 201 195 442 55 266 59 317 32 444
-24 115 -68 206 -288 588 -51 88 -101 176 -112 195 -11 19 -105 181 -209 360
-104 179 -195 336 -202 350 -27 57 -65 201 -87 330 -19 118 -78 248 -156 347
l-49 62 43 11 c23 6 46 12 52 14 5 1 -16 11 -48 21 -60 19 -158 72 -190 104
-18 18 -16 18 62 15 45 -2 91 -6 104 -8 12 -2 39 -7 60 -11 20 -4 37 -5 37 -1
0 3 -31 21 -68 40 -78 39 -230 86 -280 86 -38 0 -35 15 5 25 33 8 175 77 170
82 -2 2 -28 -2 -58 -7 -30 -6 -103 -13 -163 -15 l-109 -3 -68 70 c-89 92 -131
154 -174 258 -38 91 -38 88 -50 400 -11 275 -11 276 -68 310 -33 21 -91 25
-138 10z m376 -1562 c11 -17 29 -46 40 -65 11 -18 88 -141 170 -273 174 -279
191 -308 182 -316 -9 -9 -72 14 -141 51 -34 18 -108 57 -166 87 -116 59 -139
79 -175 155 -31 67 -43 167 -36 310 2 33 57 80 96 82 6 1 20 -13 30 -31z
m-149 -1376 c67 -34 116 -85 204 -208 85 -121 226 -310 245 -330 5 -6 21 -24
34 -40 13 -16 33 -40 45 -54 11 -13 -4 -4 -34 20 -76 63 -298 247 -341 284
-19 17 -46 40 -60 51 -13 11 -77 63 -141 117 -64 53 -130 99 -147 103 -16 3
-35 13 -42 22 -11 12 -10 17 6 26 70 42 161 45 231 9z m1660 -808 c13 -19 16
-40 11 -93 -7 -88 -45 -247 -61 -260 -19 -16 -29 0 -61 104 -32 103 -35 122
-26 149 6 14 13 4 30 -45 13 -35 27 -68 32 -73 8 -10 -28 119 -41 144 -10 19
11 71 39 99 25 25 50 17 77 -25z"/>
<path d="M5100 6404 c-8 -3 -32 -12 -52 -21 l-36 -15 3 -132 c7 -215 11 -233
98 -360 62 -92 115 -152 159 -180 28 -19 43 -9 34 22 -7 22 -15 110 -21 237
-3 55 -8 129 -10 165 -2 36 -5 93 -6 128 -2 64 -23 107 -66 137 -22 16 -82 26
-103 19z"/>
</g>
</svg>
