<svg width="20" height="20" viewBox="0 0 20 20" fill="none" xmlns="http://www.w3.org/2000/svg">
<path fill-rule="evenodd" clip-rule="evenodd" d="M9.82116 1.07646C9.78061 1.17351 8.55526 3.23106 7.09816 5.64881C5.64106 8.06651 4.43676 10.0764 4.42186 10.1152C4.40251 10.1656 5.19411 10.6581 7.19756 11.8419L10.0004 13.498L12.8025 11.841C14.8155 10.6505 15.5969 10.1639 15.5773 10.1129C15.4761 9.84901 10.0273 0.899963 9.96781 0.899963C9.92771 0.899963 9.86171 0.979363 9.82116 1.07646ZM4.42851 11.3062C4.53651 11.4909 9.97726 19.146 10 19.1453C10.0376 19.1441 15.6002 11.2835 15.5787 11.262C15.5584 11.2417 10.359 14.304 10.1421 14.464L10.0091 14.5621L7.31706 12.9727C5.83641 12.0985 4.57031 11.348 4.50351 11.305C4.39276 11.2336 4.38611 11.2337 4.42851 11.3062Z" fill="white"/>
</svg>
