<?xml version="1.0" encoding="utf-8"?>
<!-- Generator: Adobe Illustrator 25.2.3, SVG Export Plug-In . SVG Version: 6.00 Build 0)  -->
<svg version="1.1" id="Ebene_1" xmlns="http://www.w3.org/2000/svg" xmlns:xlink="http://www.w3.org/1999/xlink" x="0px" y="0px"
	 viewBox="0 0 602 127" style="enable-background:new 0 0 602 127;" xml:space="preserve">
<polygon style="fill:#FFD149;" points="601.9,119.6 601.9,117.9 592.8,117.9 592.8,126.5 601.9,126.5 601.9,124.7 595,124.7 
	595,123 601.9,123 601.9,121.4 595,121.4 595,119.6 "/>
<path style="fill:#FFD149;" d="M580.5,119.6c1.8,0,2.9,0.5,3.1,1.9h2.2c-0.2-2.5-1.9-3.8-5.4-3.8c-3.8,0-5.4,1.6-5.4,4.4
	c0,2.9,1.6,4.4,5.4,4.4c3.4,0,5.1-1.3,5.4-3.8h-2.2c-0.2,1.4-1.3,2-3.1,2c-2.2,0-3.2-0.8-3.2-2.6
	C577.3,120.4,578.3,119.6,580.5,119.6z"/>
<polygon style="fill:#FFD149;" points="566,124.4 560.1,117.9 557.2,117.9 557.2,126.5 559.4,126.5 559.4,120 565.2,126.5 
	568.2,126.5 568.2,117.9 566,117.9 "/>
<path style="fill:#FFD149;" d="M543.1,117.9l-4.4,8.6h2.4l0.9-1.8h5.1l0.9,1.8h2.4l-4.4-8.6H543.1z M542.8,123l1.8-3.5l1.7,3.5
	H542.8z"/>
<polygon style="fill:#FFD149;" points="529.7,124.4 523.9,117.9 520.9,117.9 520.9,126.5 523.1,126.5 523.1,120 528.9,126.5 
	531.9,126.5 531.9,117.9 529.7,117.9 "/>
<rect x="511.5" y="117.9" style="fill:#FFD149;" width="2.2" height="8.6"/>
<polygon style="fill:#FFD149;" points="495.6,126.5 497.8,126.5 497.8,123.8 503.9,123.8 503.9,121.9 497.8,121.9 497.8,119.7 
	504.7,119.7 504.7,117.9 495.6,117.9 "/>
<path style="fill:#FFD149;" d="M472.6,117.9h-6.2v8.6h6.2c2.2,0,4.2-1.4,4.2-4.3S474.8,117.9,472.6,117.9z M471.7,124.6h-3.2v-4.9
	h3.2c1.7,0,2.8,0.4,2.8,2.4S473.4,124.6,471.7,124.6z"/>
<polygon style="fill:#FFD149;" points="450.3,126.5 459.4,126.5 459.4,124.7 452.5,124.7 452.5,123 459.4,123 459.4,121.4 
	452.5,121.4 452.5,119.6 459.4,119.6 459.4,117.9 450.3,117.9 "/>
<polygon style="fill:#FFD149;" points="433.5,119.7 440.1,119.7 433.5,124.6 433.5,126.5 443.2,126.5 443.2,124.6 436.7,124.6 
	443.2,119.7 443.2,117.9 433.5,117.9 "/>
<rect x="424.3" y="117.9" style="fill:#FFD149;" width="2.2" height="8.6"/>
<polygon style="fill:#FFD149;" points="410.6,117.9 408.4,117.9 408.4,126.5 417.3,126.5 417.3,124.6 410.6,124.6 "/>
<path style="fill:#FFD149;" d="M394.3,117.9l-4.4,8.6h2.4l0.9-1.8h5.1l0.9,1.8h2.4l-4.4-8.6H394.3z M394,123l1.8-3.5l1.7,3.5H394z"
	/>
<path style="fill:#FFD149;" d="M383.5,121c0-1.9-1.3-3.2-3.3-3.2h-6.8v8.6h2.2v-2.3h3.6l1.4,2.3h2.6l-1.6-2.6
	C382.8,123.5,383.5,122.4,383.5,121z M379.6,122.3h-3.9v-2.6h3.9c0.7,0,1.7,0,1.7,1.3C381.3,122.3,380.3,122.3,379.6,122.3z"/>
<polygon style="fill:#FFD149;" points="356.1,119.7 360.2,119.7 360.2,126.5 362.5,126.5 362.5,119.7 366.6,119.7 366.6,117.9 
	356.1,117.9 "/>
<polygon style="fill:#FFD149;" points="347,124.4 341.1,117.9 338.1,117.9 338.1,126.5 340.3,126.5 340.3,120 346.2,126.5 
	349.2,126.5 349.2,117.9 347,117.9 "/>
<polygon style="fill:#FFD149;" points="322.1,126.5 331.2,126.5 331.2,124.7 324.3,124.7 324.3,123 331.2,123 331.2,121.4 
	324.3,121.4 324.3,119.6 331.2,119.6 331.2,117.9 322.1,117.9 "/>
<path style="fill:#FFD149;" d="M309.8,119.6c1.8,0,2.9,0.5,3.1,1.9h2.2c-0.2-2.5-1.9-3.8-5.4-3.8c-3.8,0-5.4,1.6-5.4,4.4
	c0,2.9,1.6,4.4,5.4,4.4c3.4,0,5.1-1.3,5.4-3.8h-2.2c-0.2,1.4-1.3,2-3.1,2c-2.2,0-3.2-0.8-3.2-2.6
	C306.6,120.4,307.5,119.6,309.8,119.6z"/>
<polygon style="fill:#FFD149;" points="288.5,126.5 297.6,126.5 297.6,124.7 290.8,124.7 290.8,123 297.6,123 297.6,121.4 
	290.8,121.4 290.8,119.6 297.6,119.6 297.6,117.9 288.5,117.9 "/>
<path style="fill:#FFD149;" d="M277.4,117.9h-6.2v8.6h6.2c2.2,0,4.2-1.4,4.2-4.3S279.7,117.9,277.4,117.9z M276.6,124.6h-3.2v-4.9
	h3.2c1.7,0,2.8,0.4,2.8,2.4S278.3,124.6,276.6,124.6z"/>
<path id="Path-34" style="fill-rule:evenodd;clip-rule:evenodd;fill:#BEBEBE;" d="M6.4,93.1c3.1,0.5,7.3,0.3,12.6-0.5
	c8-1.1,11.2-3.1,12.6-3.4c1-0.2,2.4-0.2,4.4,0c-1.9,1.5-3.9,2.6-6,3.4c-3.1,1.2-4.7,1.8-8.2,2.2s-5.5,0.3-9.7-0.2
	C9.5,94.3,7.5,93.8,6.4,93.1z"/>
<path id="Path-35" style="fill-rule:evenodd;clip-rule:evenodd;fill:#BEBEBE;" d="M5.5,70.2c2.9,1.1,5.5,1.7,7.7,1.9
	c3.4,0.4,4.6-0.5,7.1,0.5c1.7,0.6,2.5,1.4,2.4,2.2c-1.2,0.1-2.7-0.1-4.6-0.3c-2.8-0.4-2.9-0.5-5.2-1.1c-2.3-0.6-2-0.5-4-1.3
	C7.7,71.6,6.5,71,5.5,70.2z"/>
<path id="Path-36" style="fill-rule:evenodd;clip-rule:evenodd;fill:#BEBEBE;" d="M10.1,49.3c2.2,0.8,4.2,1.6,6.1,2.4
	c2.9,1.1,3.9,1.1,5.5,2.6c1,1,2.6,2.3,4.7,4c-2.9-0.5-5.1-1.1-6.5-1.8c-2.1-1-2.3-1.1-4-2.2c-1.7-1.1-2.5-1.8-3.8-2.9
	C11.2,50.6,10.5,49.9,10.1,49.3z"/>
<path id="Path-25" style="fill-rule:evenodd;clip-rule:evenodd;fill:#BEBEBE;" d="M90.5,127c-2.8-6.2-5.6-12.1-8.5-17.6
	c-2.9-5.6-8-15.3-15.4-29.3L55.7,59.5l12.2,64.2L85,127H90.5z"/>
<path id="Path-25-Copy" style="fill-rule:evenodd;clip-rule:evenodd;fill:#BEBEBE;" d="M109.8,120.4c-4.6-5.6-11.1-14.1-19.4-25.6
	S77.6,76.9,77,75.8l-1.4-3.1c-0.7-1.6-1.2-3.2-1.6-4.9l0-0.1c-0.3-1.6-0.4-3.2-0.2-4.9c0.2-1.6,0.6-3.2,1.3-4.7l3.3-7.4l0,0
	l-7.6,12.2l26.2,63c1.3-0.2,3.4-0.9,6.4-2.2C106.3,122.4,108.4,121.3,109.8,120.4z"/>
<path id="Path-26" style="fill-rule:evenodd;clip-rule:evenodd;fill:#BEBEBE;" d="M78.3,50.8c0,1.4,0.7,3.1,2,5.1
	c2,3,9.2,12.3,11.8,14.8c1.7,1.7,4.3,3.1,7.8,4.2c-0.9-0.1-1.4-0.2-1.6-0.2c-0.5,0-1.1,0.1-1.8,0.2c-1.6,0.2-1.9,0.1-3.7-0.5
	s-5.4-4.7-9-9c-3.7-4.2-4.1-5.1-4.7-7.2C78.8,56.9,78.5,54.4,78.3,50.8z"/>
<polygon id="Path-28" style="fill-rule:evenodd;clip-rule:evenodd;fill:#BEBEBE;" points="112.1,73.8 93.6,59.2 96.9,60.2 "/>
<path id="Path-29" style="fill-rule:evenodd;clip-rule:evenodd;fill:#BEBEBE;" d="M105.7,19.6l-4.1-14.1c-0.2,0.1-0.4,0.2-0.7,0.3
	c-0.2,0.1-0.4,0.2-0.5,0.1c-0.1,0.9-0.1,2,0,3.3c0.1,1.3,0.1,2.6,0.3,3.8c0.6,1.3,1.4,2.7,2.5,4.1C104.3,18.6,105.1,19.4,105.7,19.6
	z"/>
<polygon id="Path-30" style="fill-rule:evenodd;clip-rule:evenodd;fill:#BEBEBE;" points="99.9,27.2 111.5,45.9 101.8,28.3 "/>
<path id="Path-31" style="fill-rule:evenodd;clip-rule:evenodd;fill:#BEBEBE;" d="M129.2,77.1c1.2,2,1.9,3.4,2.2,4.1s0.3,1.5,0,2.1"
	/>
<path style="fill:#DDDDDD;" d="M134.9,74.3c-0.3-2.8-1.3-4.6-1.9-5.7c-3.6-6.8-12.1-21.1-13.6-23.8c-0.5-0.7-1-1.8-1.5-3.3
	c-0.6-1.7-0.8-3.3-0.9-3.8c-0.1-0.7-0.1-0.7-0.2-1.3c0-0.3-0.3-2.2-1.2-3.9c-0.7-1.5-1.5-2.5-2.1-3.3c-0.3-0.3-0.6-0.6-0.9-0.9
	c1.3-0.3,2.2-0.6,2.2-0.6s-3-0.6-4.9-2.4c-0.1-0.1-0.3-0.2-0.5-0.4c0.1,0,0.1,0,0.2,0c2.6-0.1,5.9,0.6,5.9,0.6s-3.9-2.5-8-2.8
	c-0.1,0-0.2,0-0.3,0c2.7-0.8,4.7-2.2,4.7-2.2s-3.3,0.7-5.9,0.6c-0.4,0-0.7,0-1.1-0.1c-2.2-2.1-4-4.1-4.7-6.2c-0.2-0.6-0.5-1.3-0.8-2
	c0-0.1-0.4-11.2-0.5-11.3c-2.4-4.5-7.4,1.3-11.5,2c-12.7,2.2-20.7,11-31.8,19.6c-0.7,0.6-3.9,4.5-9.1,9.3c-1.1,1-2.4,2.6-3.8,4.6
	c-6,2.7-11.9,6.2-18.3,9c-11.7,5-14.4,3.2-14.4,3.2s5.5,7,16.4,9c-2.6,2.2-5.3,4.4-8.3,6.4c-9.5,6.5-12.7,5.5-12.7,5.5
	s7,4.4,17.2,4.6c-2,3.3-3.9,6.7-6.2,9.9c-6.5,8.8-10,8.4-10,8.4s9.5,3.6,20.1,0.8c1.7,9.7,5.8,19.3,7,24.3
	c3.7-1.4,34.7,5.6,48.9,8.3c2.3,0.4,4.9,0.6,7.9,0.4c0.9-0.1-10.6-22.5-34.5-67.4c26.9,44.4,40.6,66.5,41.2,66.3
	c3.8-1,8.1-2.7,12.8-5.4c-2.2-0.6-13.1-15.5-32.9-44.6c-2.2-3.9-3.3-7.7-3.3-11.3c0-4.1,1.6-8.7,4.7-13.7c0.1,3.1,0.5,5.6,1,7.6
	c0.8,2.9,10.6,14.9,13.6,16.1c4.9,1.8,2.8-1.3,10.3,1.4c1.4,0.4,3,1.1,4.8,2.8c2.2,2.1,4.5,4.7,4.5,4.7c0.3,0.7,0.5,1,0.8,1.8
	c0.5,1,3.5,5,4.8,6.1c1.3,1.1,2.4,1.7,3.3,1.9c0.7,0.3,1.3,0.4,1.4,0.4c1.6,0.4,3,0.3,3.7,0.3c0.8-0.1,4.2-3.7,4.8-4.2
	c0.5-0.9,0.9-1.7,1.1-2.1c1-2.2,1.4-4.2,2-7.4C134.9,78,135.1,76.4,134.9,74.3z M100.1,32.6c0-1.2,2.3-2.3,2.8-1.3l7.1,11.9
	c1.2,1.8,0.6,1.8-1.1,1.1l-6.7-3.5c-1.3-1.2-2.1-3.2-2.1-5.4V32.6z M94.6,59.5c0.1-0.2,4.3-3.4,8.6,2.9c2.7,4,5.4,7.5,8,10.6
	C102.6,66.1,94.6,59.6,94.6,59.5z M133,76.9c-0.2,1.6-0.1,0.9-0.2,1.4c-0.2,0.9-0.6,2.8-0.8,3.6c-0.3,0.7-0.9,0.7-1,0.1
	c0-0.3-0.7-2.6-1.1-3.6c-0.3-0.8,0.7-3.4,1.4-3.9C132.1,74,133.3,75.3,133,76.9z"/>
<path style="fill:#DDDDDD;" d="M106,19.8c0.3,0.2,0.3-0.4,0.1-1.1c-0.2-0.7-0.7-11.4-0.7-11.5c-1.1-2.1-2.8-2.5-4.6-1.2
	c-0.2,0.1-0.1,2.4,0.2,6.9C102.8,16.6,104.4,18.9,106,19.8z"/>
<polygon style="fill:#DDDDDD;" points="585.1,34.4 585.1,82.6 541.4,34.4 519.2,34.4 519.2,98.6 535.6,98.6 535.6,50.5 579.2,98.6 
	601.5,98.6 601.5,34.4 "/>
<polygon style="fill:#DDDDDD;" points="440.8,98.6 508.8,98.6 508.8,85.5 457.3,85.5 457.3,72.5 504.2,72.5 504.2,60.5 457.3,60.5 
	457.3,47.5 508.8,47.5 508.8,34.4 440.8,34.4 "/>
<path style="fill:#DDDDDD;" d="M430.4,58c0-14.3-9.9-23.5-24.4-23.5h-50v64.1h16.4V81.4h26.4L409,98.6h19.3l-11.7-19
	C425.1,76.1,430.4,68.4,430.4,58z M401.7,67.3l-29.7,0V48.1h29.1h0.2l0.4,0c4.9,0,11.9,0.4,11.9,9.7
	C413.6,66.9,406.6,67.3,401.7,67.3z"/>
<path style="fill:#DDDDDD;" d="M291.6,34.4l-33.2,64.1h18.2l6.9-13.6H322l6.9,13.6h18.3L314,34.4H291.6z M289.6,72.9l13.2-26.4
	L316,72.9H289.6z"/>
<polygon style="fill:#DDDDDD;" points="252.7,34.4 226.9,86.4 201,34.4 182.5,34.4 215.6,98.6 238.2,98.6 271.2,34.4 "/>
</svg>
