<?xml version="1.0" encoding="utf-8"?>
<svg version="1.1" id="Ebene_1" xmlns="http://www.w3.org/2000/svg" xmlns:xlink="http://www.w3.org/1999/xlink" x="0px" y="0px" viewBox="0 0 25 16" style="enable-background:new 0 0 25 16;" xml:space="preserve"><path d="M24.4,11.8l-4.1,4.1c-0.2,0.2-0.5,0.2-0.7,0l-4.1-4.1c-0.2-0.2-0.2-0.5,0-0.7l0.7-0.7c0.2-0.2,0.5-0.2,0.7,0l2.1,2.2V3.9h-8c-0.1,0-0.1,0-0.2,0c-0.1,0-0.1-0.1-0.2-0.1L9.8,2.9c-0.3-0.3-0.1-0.8,0.3-0.8H20C20.5,2.1,21,2.5,21,3v9.7l2.1-2.2c0.2-0.2,0.5-0.2,0.7,0l0.7,0.7C24.6,11.3,24.6,11.6,24.4,11.8z M14.3,12.2c-0.1-0.1-0.2-0.1-0.3-0.1H6V3.3l2.1,2.2c0.2,0.2,0.5,0.2,0.7,0l0.7-0.7c0.2-0.2,0.2-0.5,0-0.7L5.4,0.1C5.2,0,4.9,0,4.7,0.1L0.6,4.2c-0.2,0.2-0.2,0.5,0,0.7l0.7,0.7c0.2,0.2,0.5,0.2,0.7,0l2.1-2.2V13c0,0.5,0.4,0.9,0.9,0.9h9.8c0.4,0,0.6-0.5,0.3-0.8L14.3,12.2z"/></svg>
