<?xml version="1.0" encoding="utf-8"?>
<!-- Generator: Adobe Illustrator 25.2.0, SVG Export Plug-In . SVG Version: 6.00 Build 0)  -->
<svg version="1.1" id="Ebene_1" xmlns="http://www.w3.org/2000/svg" xmlns:xlink="http://www.w3.org/1999/xlink" x="0px" y="0px"
	 viewBox="0 0 100 100" style="enable-background:new 0 0 100 100;" xml:space="preserve">
<path style="fill:#FFFFFF;" d="M58,54.6c-1,0.1-2.4,1-4.2,2.9c-0.6,0.6-1,0.9-1.1,0.9c-0.2,0-0.2,0-0.2-0.1c0-0.1,0-0.2,0-0.3
	c0-0.1,0.2-0.6,0.6-1.6c0.3-1,0.6-1.9,0.8-2.6c0.2-0.8,0.4-1.2,0.3-1.4c0-0.2-0.1-0.5-0.3-0.7c-0.2-0.3-0.5-0.4-0.9-0.3
	c-0.4,0-0.7,0.2-1.1,0.6l-1.6,2.2c-2.2,3.1-4.8,7.1-7.8,11.9c0-0.1,0-0.2,0-0.2c0-0.3-0.2-0.4-0.5-0.4c-0.2,0-0.4,0.1-0.6,0.2
	c-0.2,0.1-0.4,0.2-0.5,0.3c-0.2,0-0.3-0.1-0.3-0.3c0-0.2,0.5-1.2,1.7-2.9c1.1-1.7,1.7-2.8,1.7-3.3c0-0.5-0.2-0.9-0.6-1.3
	c-0.3-0.4-0.8-0.6-1.3-0.6c-0.6,0-1.5,0.7-2.8,2c-1.3,1.3-2.1,1.9-2.3,1.9c-0.2,0-0.3,0-0.3-0.1c0-0.1,0.2-0.5,0.6-1
	c0.3-0.4,0.4-0.7,0.6-0.9c0.1-0.3,0.2-0.6,0.1-1c0-0.4-0.2-0.7-0.6-0.9c-0.4-0.3-0.8-0.4-1.2-0.4c-1.2,0.1-3.1,1.4-5.7,3.9
	c-0.9,0.8-1.4,1.2-1.5,1.2c-0.1,0-0.2,0-0.2-0.1c0-0.1,0-0.2,0.1-0.3c0.1-0.1,0.3-0.5,0.6-1.1c0.1-0.2,0.3-0.4,0.4-0.8
	c0.1-0.3,0.1-0.7,0.1-1c0-0.4-0.2-0.7-0.6-0.9c-0.4-0.3-0.8-0.4-1.2-0.4c-0.4,0-0.8,0.2-1.2,0.4L26,58.7c-1.2,0.9-2.6,2.3-4.1,3.9
	c-0.7,0.8-1.3,1.7-1.8,2.6c-0.5,0.9-0.7,1.7-0.6,2.3c0.1,0.6,0.3,1.1,0.6,1.5c0.4,0.4,0.8,0.5,1.3,0.5c1.1-0.1,3.2-1.7,6.5-4.8
	c0.1-0.1,0.2-0.2,0.3-0.2c0.1,0,0.2,0.1,0.2,0.2c0,0.1,0,0.2-0.1,0.4c-0.7,1-1,1.9-0.9,2.7c0,0.4,0.2,0.8,0.5,1.2
	c0.3,0.4,0.7,0.5,1.3,0.5c1-0.1,2.7-1.4,5.1-4c0.9-0.9,1.4-1.4,1.5-1.5c0.1-0.1,0.2-0.1,0.3-0.1c0.1,0,0.2,0,0.2,0.1
	c0,0.1,0,0.2-0.1,0.3c-0.2,0.2-0.4,0.6-0.6,1.2c-0.2,0.5-0.2,1-0.2,1.4c0.1,1.8,1.2,2.6,3.3,2.4c0.9-0.1,1.9-0.5,2.7-1.1
	c-1.2,2.2-2.3,4.2-3.1,6.3c-1,2.3-1.5,4.1-1.4,5.3c0.1,0.7,0.3,1.3,0.8,1.8c0.5,0.5,1,0.8,1.6,0.7c1.2-0.1,2.4-1.2,3.5-3.3
	c4.2-8.4,6.3-12.6,6.3-12.7C49,66.1,49,66,49.1,66c0.1,0,0.2,0.1,0.5,0.4c0.2,0.3,0.6,0.5,1,0.8c0.4,0.2,0.9,0.3,1.5,0.3
	c1.3-0.1,2.6-0.8,4.1-2.2c1.4-1.4,2.6-2.8,3.5-4.4c0.9-1.6,1.4-2.8,1.4-3.8C60.8,55.3,59.8,54.5,58,54.6z M54.2,61.6
	c-1.8,2-3.1,3-4.1,3c-0.1,0-0.2,0-0.2-0.1c0-0.5,0.9-1.8,2.7-4c1.9-2.1,3.1-3.2,3.8-3.3c0.2,0,0.3,0.1,0.3,0.2
	C56.8,58.3,55.9,59.6,54.2,61.6z"/>
<path style="fill:#FFFFFF;" d="M77.4,63.3c-0.8,0.8-1.8,1.5-3.1,2.2c-1.2,0.7-2.2,1.1-3.1,1.2c-0.8,0.1-1.5-0.1-2.1-0.6
	s-0.9-1.1-0.9-1.8c-0.1-1.2,0.6-2.9,2.2-5.1c0.1-0.2,0.2-0.3,0.2-0.4c0-0.1,0-0.1-0.1-0.1c-0.1,0-0.2,0.1-0.6,0.2
	c-0.3,0.1-1.1,0.8-2.4,2c-1.3,1.2-2.6,2.4-3.8,3.7c-1.2,1.3-2.2,1.9-2.7,2c-0.6,0-1-0.2-1.3-0.6c-0.3-0.5-0.5-1-0.5-1.6
	c-0.2-1.9,1.1-4.8,3.6-8.9c2.6-4.1,5.4-7.7,8.3-11c2.9-3.3,4.8-4.9,5.7-5c0.4,0,0.8,0.1,1.3,0.5c0.4,0.3,0.7,0.8,0.7,1.4
	c0.1,0.6-0.6,2-1.9,4.3c-1.3,2.2-2.8,4.6-4.5,7.1c-2.1,3.1-3.1,4.8-3.1,5.1c0,0.1,0.1,0.1,0.2,0.1c0.1,0,0.5-0.2,1.2-0.7
	c0.7-0.5,1.5-1,2.4-1.4c0.9-0.5,1.4-0.7,1.8-0.8c0.3-0.1,0.7-0.2,1.2-0.2c0.5,0,1,0,1.4,0.2c0.5,0.2,0.8,0.4,0.8,0.8
	c0,0.4-0.8,1.7-2.4,4c-1.6,2.2-2.4,3.5-2.4,3.8c0,0.3,0.2,0.4,0.4,0.4c0.5,0,1.5-0.7,3-1.9c0.5-0.5,0.9-0.7,1-0.8
	c0.1-0.1,0.2-0.1,0.3-0.1c0.4,0,0.5,0.1,0.6,0.5C78.6,62.1,78.2,62.6,77.4,63.3z"/>
<g>
	<path style="fill:#FFFFFF;" d="M100.6,49c-0.3-4.2-1.8-7.8-3.7-8.8l-0.9-0.5l0.7-0.7c0.9-0.9,0.8-2.6-0.5-5.8
		c-1.3-3.2-2.3-4.7-3.7-5.5c-1.5-0.9-5.5-1.6-13.9-2.7c-9.2-1.2-10.4-1.2-12,0.2c-1.1,0.9-0.3,4.3,2.5,10c1.3,2.6,2.3,3.7,3.9,4.5
		l0.2,0.1c1.7-1.6,2.7-2,3.5-2.1c0.6-0.1,1.6,0.1,2.5,0.8c0.6,0.4,1.3,1.3,1.4,2.7c0.1,0.9-0.3,2.1-2.2,5.3
		c-1.1,1.9-2.4,3.9-3.7,5.9c0.1,0.3,0.3,0.5,0.4,0.7c0.2,0,0.5-0.1,0.7-0.1c0.7-0.1,1.4,0,2.1,0.3c1.2,0.4,1.9,1.2,2,2.3
		c0.7,0,1.8,0,3.2,0c5.3,0,12.3-0.9,14.6-2c0.8-0.3,1.8-1,2.2-1.5C100.7,51.5,100.7,51.3,100.6,49z M80.3,35c-1.2-0.4-2.2-3-1.3-3.4
		c1-0.4,6.8,0.1,8,0.7c0.5,0.3,1.2,1.4,1.6,2.6l0.2,0.7L85,35.5C82.8,35.3,80.8,35.1,80.3,35z M92.2,49c-1,0.4-6.9,0.6-7.5,0.2
		c-0.7-0.4-1.7-3.3-1.5-4.4c0.1-0.5,0.5-0.8,1.2-1c1.1-0.3,5.6-0.1,6.5,0.3C92,44.8,93.1,48.7,92.2,49z"/>
	<path style="fill:#FFFFFF;" d="M18,56.3c0.1,0.5,0.3,0.9,0.5,0.9c0.1,0,0.3,0.1,0.3,0.3c0,0.4,1.6,1.9,2.9,2.7
		c1.1-1.2,2.2-2.1,3.2-2.9l0.9-0.7l0.1-0.1c0.6-0.3,1.3-0.5,1.9-0.6c0.9-0.1,1.7,0.2,2.4,0.7c0.5,0.3,0.8,0.7,1.1,1.1
		c1.9-1.5,3.3-2.3,4.6-2.4c0.9-0.1,1.7,0.2,2.4,0.7c0.4,0.3,0.7,0.6,1,1c1-0.8,1.8-1.2,2.6-1.3c1.1-0.1,2.1,0.3,2.8,1.2
		c0.3,0.3,0.5,0.7,0.7,1.1c1.2-1.8,2.3-3.5,3.4-5l0.5-0.7c-3.1,0.3-7.1,0.4-8.4,0.3c-1.8-0.2-2-0.3-2.9-1.3c-0.5-0.6-1-1.5-1.2-2.1
		c-0.1-0.6-0.3-1-0.4-1c-0.1,0-0.3-0.4-0.3-0.9c0-1.9,1.4-2.5,5.8-2.7c2.6-0.1,7.3,0.1,8.5,0.4c0.7,0.2,1.4,0.7,1.8,1.2
		c0.3,0.4,0.6,0.8,0.9,1.1l0,0c0.1,0.1,0.2,0.2,0.2,0.2c0.4,0.5,0.7,1.3,0.8,2.1c0.5,0.2,0.8,0.5,1.2,0.9c0.4,0.5,0.6,1.1,0.7,1.7
		c0,0.3,0,0.7-0.2,1.4c0.8-0.5,1.5-0.7,2.1-0.7c1.6-0.1,2.9,0.4,3.8,1.3c1.8-2.7,3.6-5.3,5.5-7.6c-0.3-0.7-0.5-1.4-0.8-1.9
		c-0.7-1.3-1.5-2.7-1.8-3.1c-0.7-0.7-2.4-1.7-3.7-2l-0.9-0.2l0.9-0.7c1.9-1.5,2-2.5,0.7-5.5c-2.2-4.8-5.2-8.8-7.4-10
		c-1.2-0.6-5.3-1.6-11.2-2.5c-4.7-0.8-31.3-4.1-33.4-4.2c-0.9,0-1.8-0.1-2.1-0.1c-0.2-0.1-1,0-1.8,0.1c-4.8,0.8-5.2,1.1-5,4.7
		c0.1,1.4,0.3,2.6,0.5,2.6c0.2,0.1,0.3,0.4,0.3,0.7c0,0.3,0.1,0.6,0.3,0.6c0.2,0,0.3,0.2,0.3,0.4S2.2,26,2.3,26c0.1,0,0.4,0.5,0.7,1
		c0.2,0.6,0.5,1,0.7,1c0.1,0,0.2,0.2,0.2,0.4S4,29,4.2,29c0.2,0,0.3,0.2,0.3,0.4s0.1,0.4,0.3,0.4c0.2,0,0.3,0.2,0.3,0.4
		s0.1,0.4,0.2,0.4c0.1,0,0.5,0.5,0.8,1.1c0.3,0.6,0.8,1.3,1.1,1.6c0.3,0.3,0.5,0.6,0.5,0.6c0,0.4,3,3.2,4,3.7
		c1.5,0.8,4.7,1.8,5.5,1.8c0.9,0,0.7,0.4-0.9,1.3c-0.8,0.4-1.6,1.1-1.8,1.5c-0.4,0.8-0.2,4.6,0.3,5.1c0.2,0.2,0.3,0.6,0.3,1
		c0,0.4,0.1,0.7,0.3,0.7c0.2,0,0.3,0.4,0.3,0.9c0,0.5,0.1,0.9,0.3,0.9c0.1,0,0.4,0.7,0.5,1.5c0.1,0.8,0.3,1.5,0.5,1.5
		c0.1,0,0.3,0.3,0.3,0.7c0,0.4,0.1,0.7,0.3,0.7C17.7,55.4,17.9,55.8,18,56.3z M28.3,27.6c3.1-0.6,13.7,0.5,15.7,1.6
		c0.9,0.6,2.4,2.5,2.7,3.5c0.1,0.5,0.1,0.7-0.3,0.8c-0.7,0.1-14.3-0.5-14.9-0.7c-0.2-0.1-0.8-0.2-1.2-0.3c-1-0.2-2.1-1.2-2.8-2.7
		C26.6,28.3,26.8,27.9,28.3,27.6z"/>
</g>
<g>
	<path style="fill-rule:evenodd;clip-rule:evenodd;fill:#FFFFFF;" d="M36.9,73C28.8,75.2,21.7,77.9,17,80c-0.6,0.3-0.9,1-0.6,1.6
		c0.3,0.6,1,0.9,1.6,0.6c4.2-1.9,10.5-4.3,17.9-6.4C36.2,75,36.5,74,36.9,73z"/>
	<path style="fill-rule:evenodd;clip-rule:evenodd;fill:#FFFFFF;" d="M83.9,71.3c-10.8-3.3-23.4-2.8-35-0.9
		c-0.4,0.8-0.9,1.7-1.3,2.6c11.9-2.2,24.8-2.8,35.6,0.5c0.6,0.2,1.3-0.2,1.5-0.8C84.9,72.1,84.6,71.5,83.9,71.3z"/>
</g>
</svg>
