<?xml version="1.0" encoding="utf-8"?>
<svg version="1.1" id="Ebene_1" xmlns="http://www.w3.org/2000/svg" xmlns:xlink="http://www.w3.org/1999/xlink" x="0px" y="0px" width="27px" height="27px" viewBox="0 0 27 27" style="enable-background:new 0 0 27 27;" xml:space="preserve"><path d="M23.8,0.1c-1.3,0.4-2.2,1.7-1.8,3c0,0.2,0.1,0.3,0,0.3c-0.1,0.1-3.1,2.2-3.2,2.2c0,0-0.2,0-0.3-0.1c-0.3-0.2-0.8-0.4-1.2-0.4c-0.7-0.1-1.4,0.2-2,0.8L15,6.2l-1.3-0.4l-1.3-0.4l-0.1-0.4c-0.1-0.9-0.5-1.5-1.2-2c-0.3-0.2-0.9-0.3-1.3-0.3c-1.1,0-2.1,0.7-2.4,1.8c-0.1,0.4-0.1,1,0,1.4l0.1,0.2L5.8,7.1L4.2,8.2L4,8c-1.5-1-3.4-0.2-3.9,1.5c-0.5,1.8,1.3,3.5,3,3c1.3-0.3,2.2-1.7,1.9-3L4.9,9.3l0.2-0.1C5.5,8.9,8.1,7,8.2,7c0,0,0.2,0.1,0.3,0.1c1,0.7,2.3,0.5,3.2-0.4L12,6.5l1.3,0.4l1.3,0.4l0.1,0.4C14.7,8.6,15,9,15.5,9.5c1.4,1.2,3.6,0.6,4.1-1.1c0.1-0.4,0.1-0.6,0-1.5c0-0.1,0.1-0.2,1.6-1.3l1.6-1.1l0.3,0.2c1.5,1,3.4,0.2,3.9-1.5C27.4,1.3,25.6-0.4,23.8,0.1z M24.9,1.3c0.5,0.1,0.9,0.7,0.9,1.2c0,0.7-0.6,1.3-1.3,1.3c-0.3,0-0.6-0.1-0.9-0.4c-0.5-0.5-0.5-1.2,0-1.7C24,1.3,24.4,1.2,24.9,1.3z M10.5,4c0.3,0.2,0.5,0.5,0.6,0.8c0.1,0.5-0.2,1.1-0.6,1.4c-0.2,0.1-0.3,0.1-0.6,0.1c-0.3,0-0.4,0-0.6-0.2C8.3,5.6,8.4,4.2,9.4,3.9C9.7,3.8,10.2,3.8,10.5,4z M17.8,6.5c0.1,0.1,0.3,0.3,0.4,0.4c0.1,0.2,0.2,0.3,0.2,0.7s0,0.4-0.2,0.7c-0.2,0.4-0.6,0.6-1,0.6c-0.3,0-0.4,0-0.6-0.1c-1-0.5-0.9-2,0.2-2.3C17.1,6.3,17.6,6.4,17.8,6.5z M2.9,8.9C3.2,9,3.6,9.4,3.7,9.7c0.1,0.5,0,0.9-0.3,1.3c-0.5,0.5-1.2,0.5-1.7,0c-0.5-0.5-0.5-1.2,0-1.7C2,8.9,2.4,8.8,2.9,8.9z"/><path d="M22.4,7.7C22.2,7.8,22,8,22,8.2c0,0.1,0,3.3,0,7.1c0,6.9-0.1,11.1,0,11.3c0.1,0.1,0.2,0.2,0.3,0.3c0.1,0.1,0.2,0.1,2.1,0.1c1.9,0,2,0,2.1-0.1c0.1-0.1,0.2-0.2,0.3-0.3c0.1-0.1,0.2-4.4,0.2-11.4s0-7.1-0.1-7.2c-0.1-0.1-0.2-0.2-0.3-0.3c-0.1-0.1-0.2-0.1-2.1-0.1C23,7.6,22.6,7.6,22.4,7.7z"/><path d="M7.9,10.2c-0.1,0-0.2,0.1-0.3,0.2c-0.3,0.3-0.3,0-0.3,6.1l-0.1,9.9l0.1,0.2c0.1,0.1,0.2,0.2,0.3,0.3C7.7,27,7.8,27,9.7,27c1.8,0,1.9,0,2.1-0.1c0.1-0.1,0.3-0.2,0.3-0.3l0.1-0.2l0.1-9.9v-5.7l-0.1-0.2c-0.1-0.1-0.2-0.2-0.3-0.3c-0.2-0.1-0.3-0.1-2.1-0.1C8.7,10.1,7.9,10.2,7.9,10.2z"/><path d="M15.1,12.8c-0.1,0.1-0.3,0.2-0.3,0.3c-0.1,0.2-0.1,0.2-0.1,4.6s-0.1,8.7,0,8.9c0.1,0.1,0.2,0.2,0.3,0.3c0.2,0.1,0.2,0.1,2.1,0.1c1.9,0,1.9,0,2.1-0.1c0.1-0.1,0.2-0.2,0.3-0.3l0.1-0.2l0.1-8.7v-4.5l-0.1-0.2c-0.1-0.1-0.2-0.2-0.3-0.3c-0.1-0.1-0.2-0.1-2.1-0.1C15.3,12.7,15.3,12.7,15.1,12.8z"/><path d="M0.5,15.3c-0.2,0.1-0.4,0.4-0.5,0.6c0,0.1,0,1.6,0,3.3c0,3.1-0.1,7.3,0,7.5c0.1,0.1,0.2,0.2,0.3,0.3C0.4,27,0.5,27,2.4,27s2,0,2.1-0.1c0.1-0.1,0.2-0.2,0.3-0.3C4.9,26.5,5,22.2,5,19s0-3.3-0.1-3.4c-0.1-0.1-0.2-0.2-0.3-0.3c-0.1-0.1-0.2-0.1-2.1-0.1C1.1,15.2,0.6,15.2,0.5,15.3z"/></svg>
