<?xml version="1.0" encoding="utf-8"?>
<svg version="1.1" id="Ebene_1" xmlns="http://www.w3.org/2000/svg" xmlns:xlink="http://www.w3.org/1999/xlink" x="0px" y="0px" width="18px" height="28px" viewBox="0 0 18 28" style="enable-background:new 0 0 18 28;" xml:space="preserve"><path d="M17.7,19.2c0-3.7-2.4-5.4-5.9-6.5l-1.4-0.3V5.1c2,0.3,3.4,1.5,3.6,3.2c0,0.2,0.2,0.3,0.5,0.3H17c0.3,0,0.5-0.2,0.5-0.5c-0.3-3.4-3.2-5.6-7-5.9V0.5C10.5,0.3,10.4,0,10,0H8.5C8.3,0,8,0.2,8,0.5v1.9C4.1,2.5,1,4.8,1,8.8c0,3.7,2.7,5.4,5.6,6.1L8,15.3v7.8c-2.4-0.3-3.7-1.7-4.1-3.4c0-0.2-0.2-0.3-0.5-0.3H0.8c-0.3,0-0.5,0.2-0.5,0.5c0.2,3.1,2.5,5.8,7.5,6.1v1.7c0,0.2,0.2,0.5,0.5,0.5h1.5c0.2,0,0.5-0.2,0.5-0.5V26C14.6,25.7,17.7,23.3,17.7,19.2z M8,11.9c-0.3-0.2-0.5-0.2-0.8-0.3c-1.9-0.7-2.7-1.7-2.7-3.1c0-2,1.5-3.1,3.6-3.4C8,5.1,8,11.9,8,11.9z M10.2,23.1v-7.3c0.2,0,0.3,0.2,0.5,0.2c2.5,0.8,3.4,1.9,3.4,3.6C14.3,21.6,12.6,22.9,10.2,23.1z"/></svg>
