<?xml version="1.0" encoding="utf-8"?>
<svg version="1.1" id="Ebene_1" xmlns="http://www.w3.org/2000/svg" xmlns:xlink="http://www.w3.org/1999/xlink" x="0px" y="0px" viewBox="0 0 29 22" style="enable-background:new 0 0 29 22;" xml:space="preserve"><path d="M14.4,0C6.5,0,0,3.6,0,8.1v6.3c0,4,6.5,7.2,14.4,7.2c8,0,14.4-3.2,14.4-7.2V8.1C28.9,3.6,22.4,0,14.4,0z M3.6,17.1c-1.1-0.8-1.8-1.7-1.8-2.6v-2.4c0.5,0.5,1.2,1,1.8,1.4V17.1z M8.1,19.1c-0.9-0.2-1.8-0.6-2.7-1v-3.6c0.9,0.4,1.8,0.7,2.7,1V19.1z M13.5,19.8c-1.2,0-2.4-0.2-3.6-0.4v-3.6c1.2,0.2,2.4,0.3,3.6,0.4V19.8z M19,19.5c-1.2,0.2-2.4,0.3-3.6,0.4v-3.6c1.2,0,2.4-0.2,3.6-0.4V19.5z M23.5,18.1c-0.9,0.4-1.8,0.7-2.7,1v-3.6c0.9-0.2,1.8-0.6,2.7-1V18.1z M27.1,14.4c0,0.9-0.7,1.8-1.8,2.6v-3.6c0.7-0.4,1.3-0.9,1.8-1.4V14.4z M14.4,14.4C7,14.4,1.8,11.1,1.8,8.1c0-3,5.2-6.3,12.6-6.3c7.4,0,12.6,3.3,12.6,6.3C27.1,11.1,21.9,14.4,14.4,14.4z"/><path d="M19.5,8.7h-4.1v3c0,0.2-0.2,0.3-0.5,0.3H14c-0.3,0-0.5-0.1-0.5-0.3v-3H9.5C9.2,8.7,9,8.5,9,8.3V7.7c0-0.2,0.2-0.3,0.5-0.3h4.1v-3C13.6,4.1,13.8,4,14,4H15c0.3,0,0.5,0.1,0.5,0.3v3h4.1c0.3,0,0.5,0.1,0.5,0.3v0.7C20,8.5,19.8,8.7,19.5,8.7z"/></svg>
