<?xml version="1.0" encoding="utf-8"?>
<!-- Generator: Adobe Illustrator 25.2.0, SVG Export Plug-In . SVG Version: 6.00 Build 0)  -->
<svg version="1.1" id="Ebene_1" xmlns="http://www.w3.org/2000/svg" xmlns:xlink="http://www.w3.org/1999/xlink" x="0px" y="0px"
	 viewBox="0 0 100 100" style="enable-background:new 0 0 100 100;" xml:space="preserve">
<path d="M89.9,42.1c1.3-1.1,2.5-2.2,2.6-2.6c0.5-1,0.1-2.2-1.1-2.7c-1.4-0.6-0.6-1.2-14.9,11.4c-9.1,8-13.7,11.9-14.1,12
	c-0.2,0-6.2-5.7-13.3-12.8L36.3,34.4l0.9-1c0.4-0.6,4.1-4.8,8.1-9.5s8.1-9.4,9.1-10.5c1-1.2,2.3-2.7,3-3.4l1.2-1.4L59,10
	c1,2.5,0.3,3.8-3.2,6.2c-2.2,1.5-4.4,4.1-4.7,5.5c-0.5,2.7,2.3,5.5,5.5,5.5c1.7,0,1.9-0.1,4.2-2.2c1.4-1.2,3.3-2.7,4.4-3.2
	c2.2-1.2,5.3-1.6,6.4-1.1c1,0.5,1,2.1,0.1,4.2c-1,2.1-0.9,3.2,0.3,4.5c1,1,1.2,1,2.8,0.9c1.2-0.1,2.2-0.4,2.9-0.9
	c2.8-2.1,6.1-1,8.7,2.9c0.9,1.4,1.7,2.2,2,2.2c1.1,0,0.7-1.4-1-4.3C82,20.8,69.8,8,63.2,4.4c-2.8-1.5-5.5-1.7-6.8-0.6
	c-0.5,0.4-1.2,1.3-1.5,1.9c-0.3,0.6-2.2,3.2-4.3,5.6c-18.7,21.8-17.1,20-18.2,19.8c-2-0.4-3.8,1.4-3.3,3.3
	c0.1,0.4,7.7,8.2,16.7,17.2c16.4,16.4,16.4,16.4,17.8,16.4c1.2,0,1.5-0.1,2.1-1.1c0.4-0.6,0.6-1.4,0.5-1.8c-0.6-1.9-0.5-2,2.1-4.3
	c1.4-1.2,4.1-3.5,5.9-5.1s4.2-3.7,5.3-4.6c1.1-1,3.4-2.9,5.1-4.4C86.2,45.3,88.7,43.2,89.9,42.1z"/>
<path d="M43.5,52.9C28.3,37.7,27.3,36.8,26.2,36.8c-0.6,0-1.5,0.2-1.8,0.4c-0.8,0.6-1.3,2.2-1,3.1c0.2,0.4,7.7,8.2,16.8,17.2
	c14.4,14.4,16.6,16.4,17.5,16.4c2.1,0,3.4-2.1,2.4-4C59.8,69.4,52.3,61.7,43.5,52.9z"/>
<path d="M20.5,41.6c-0.2,0-1.7,1.5-3.5,3.2L13.8,48l4,4.1c2.2,2.2,4.2,4.6,4.5,5.3c1.1,2.5,0.4,5.3-2.1,9.1
	c-2.1,3.2-4.3,4.7-9.5,6.5C4.3,75.1,1.1,78.2,0.4,83c-0.9,5.5,1.6,10.3,6.8,13c1.3,0.7,2,0.8,4.8,0.8s3.5-0.1,5.1-0.9
	c3.6-1.7,5.5-4.3,8.1-11c1.4-3.5,2.7-5.6,4.8-7.5c2.1-1.9,4.4-3,6.4-3.2c2.6-0.3,4.4,0.7,8.7,5c2.1,2,4,3.7,4.2,3.7
	c0.5,0,6.3-5.9,6.3-6.4C55.5,76.2,21,41.6,20.5,41.6z"/>
<path d="M97.3,63.6c-3-6-4.5-10.6-4.9-14.2c-0.4-4.3-0.4-4.5-0.6-4.6c-0.1-0.1-0.5,1-1,2.3c-0.4,1.4-1,3-1.2,3.7
	c-0.2,0.6-0.8,2.2-1.3,3.6c-0.5,1.3-1.7,4.5-2.7,7.1c-1.1,2.6-2,5.6-2.3,6.6c-1,4.8,1.2,8.9,5.5,10.5c2,0.7,3.7,0.6,5.8-0.3
	c3.2-1.5,5-4.1,5.1-7.6C99.9,69,99.6,68.2,97.3,63.6z"/>
</svg>
