<?xml version="1.0" encoding="utf-8"?>
<svg version="1.1" id="Ebene_1" xmlns="http://www.w3.org/2000/svg" xmlns:xlink="http://www.w3.org/1999/xlink" x="0px" y="0px" viewBox="0 0 20 28" style="enable-background:new 0 0 20 28;" xml:space="preserve"><path d="M11.7,1.2C11.4,0.4,10.7,0,10,0C9.3,0,8.6,0.4,8.3,1.2C5.7,9.8,0,12.2,0,18.3C0,23.6,4.5,28,10,28c5.5,0,10-4.4,10-9.7C20,12.1,14.3,9.9,11.7,1.2z M10,26.3c-4.5,0-8.2-3.6-8.2-8c0-2.6,1.3-4.4,3.1-6.9C6.6,9,8.6,6.2,10,2c1.4,4.2,3.4,7.1,5.1,9.4c1.8,2.5,3.1,4.3,3.1,6.9C18.2,22.7,14.5,26.3,10,26.3z M10,22.8c-2.5,0-4.5-2-4.5-4.4c0-0.5-0.4-0.9-0.9-0.9c-0.5,0-0.9,0.4-0.9,0.9c0,3.4,2.9,6.1,6.4,6.1c0.5,0,0.9-0.4,0.9-0.9S10.5,22.8,10,22.8z"/></svg>
