<?xml version="1.0" encoding="utf-8"?>
<!-- Generator: Adobe Illustrator 25.2.0, SVG Export Plug-In . SVG Version: 6.00 Build 0)  -->
<svg version="1.1" id="Ebene_1" xmlns="http://www.w3.org/2000/svg" xmlns:xlink="http://www.w3.org/1999/xlink" x="0px" y="0px"
	 viewBox="0 0 100 100" style="enable-background:new 0 0 100 100;" xml:space="preserve">
		<polygon style="fill:#FFFFFF;" points="20.6,22.7 27.9,18.5 28.9,20.2 55.6,4.8 53.6,3.7 51.7,2.5 50.7,2 7.2,27.1 7.2,28.2
			19.7,21 		"/>
		<polygon style="fill:#FFFFFF;" points="20.6,38.5 41.6,26.4 42.6,28.1 69.3,12.7 67.3,11.6 65.4,10.4 64.4,9.9 7.2,42.9 7.2,44
			19.7,36.8 		"/>
		<polygon style="fill:#FFFFFF;" points="20.6,46.4 48.4,30.4 49.4,32.1 76.1,16.6 74.2,15.5 72.2,14.4 71.2,13.8 7.2,50.8 7.2,52
			19.7,44.7 		"/>
		<polygon style="fill:#FFFFFF;" points="20.6,54.3 55.5,34.2 56.5,35.9 83,20.6 81,19.5 79.1,18.3 78.1,17.8 7.2,58.7 7.2,59.9
			19.7,52.6 		"/>
		<polygon style="fill:#FFFFFF;" points="20.6,62.2 62.3,38.2 63.3,39.9 89.8,24.5 87.9,23.4 85.9,22.3 84.9,21.7 7.2,66.6
			7.2,67.7 19.7,60.5 		"/>
		<polygon style="fill:#FFFFFF;" points="92.8,26.3 91.8,25.7 7.2,74.5 7.2,75.7 19.7,68.5 20.6,70.1 62.3,46.1 63.3,47.8
			94.2,29.9 94.2,27.7 94.2,27.1 		"/>
		<polygon style="fill:#FFFFFF;" points="12.5,80.5 19.5,76.4 20.5,78.1 62.1,54.1 63.1,55.8 94.2,37.8 94.2,35.6 94.2,33.3
			94.2,32.2 11.6,79.9 		"/>
		<polyline style="fill:#FFFFFF;" points="62.1,62 63.1,63.7 94.2,45.7 94.2,43.5 94.2,41.2 94.2,40.1 18.4,83.9 19.4,84.4
			26.5,80.3 27.5,82 		"/>
		<polygon style="fill:#FFFFFF;" points="26.2,88.4 33.4,84.3 34.3,86 62.1,69.9 63.1,71.6 94.2,53.6 94.2,51.4 94.2,49.1 94.2,48
			25.2,87.8 		"/>
		<polygon style="fill:#FFFFFF;" points="33.1,92.3 40.2,88.2 41.2,89.9 62.1,77.8 63.1,79.5 94.2,61.5 94.2,59.3 94.2,57
			94.2,55.9 32.1,91.8 		"/>
		<polygon style="fill:#FFFFFF;" points="39,95.7 39.9,96.3 47.1,92.2 48,93.9 62.1,85.7 63.1,87.4 94.2,69.5 94.2,67.2 94.2,64.9
			94.2,63.8 		"/>
		<polygon style="fill:#FFFFFF;" points="46.8,100.3 53.9,96.1 54.9,97.8 62.1,93.6 63.1,95.3 94.2,77.4 94.2,75.1 94.2,72.8
			94.2,71.7 45.8,99.7 		"/>
		<polygon style="fill:#FFFFFF;" points="62.4,8.7 60.5,7.6 60.5,7.6 58.5,6.5 57.5,5.9 7.2,35 7.2,36.1 19.7,28.9 20.6,30.6
			34.7,22.5 35.7,24.2 		"/>

</svg>
