<?xml version="1.0" encoding="utf-8"?>
<!-- Generator: Adobe Illustrator 25.2.0, SVG Export Plug-In . SVG Version: 6.00 Build 0)  -->
<svg version="1.1" id="Ebene_1" xmlns="http://www.w3.org/2000/svg" xmlns:xlink="http://www.w3.org/1999/xlink" x="0px" y="0px"
	 viewBox="0 0 100 100" style="enable-background:new 0 0 100 100;" xml:space="preserve">
<g>
	<path style="fill:#FFFFFF;" d="M50.5,12C29.8,12,13,28.8,13,49.5S29.8,87,50.5,87S88,70.2,88,49.5S71.2,12,50.5,12z M50.5,84.3
		c-19.2,0-34.8-15.6-34.8-34.8s15.6-34.8,34.8-34.8s34.8,15.6,34.8,34.8S69.7,84.3,50.5,84.3z"/>
	<path style="fill:#FFFFFF;" d="M54.8,45.5c-5.4-2.6-10-4.8-9.5-9.8c0.3-3.6,4.9-4.8,8-4.6c4.5,0.3,8.2,2.3,11.7,6.5l2-1.7
		c-4.1-4.8-8.3-7.1-13.6-7.5c-0.5-0.1-1.1-0.1-1.7,0c-4.4-0.1-9.2,1.6-12.2,4.4c-2.2,2-3.4,4.5-3.6,7.3c-0.3,8.3,6.5,11.3,12.5,13.9
		c5.3,2.3,9.8,4.2,9.7,9.4c0,1-0.5,1.8-1.2,2.6c-1.7,1.6-4.8,2.3-7,2.3c-5-0.2-9.5-2.4-13.3-6.6l-2,1.7c4.3,4.8,9.4,7.3,15.2,7.4
		l0,0c0.1,0,0.2,0,0.3,0l0,0c0.1,0,0.2,0,0.2,0c6.7,0,16.1-3.3,16.8-10.8C67.9,51.8,61,48.4,54.8,45.5z M60.2,65.8
		c0.3-0.8,0.5-1.5,0.5-2.3c0.2-6.9-5.6-9.5-11.3-11.9c-5.7-2.5-11.1-4.8-10.9-11.4c0.1-2.5,1.5-4.3,2.7-5.4c0.6-0.5,1.3-1,2-1.4
		c-0.3,0.7-0.5,1.4-0.6,2.1c-0.6,6.8,5.3,9.6,11.1,12.4c5.8,2.8,11.4,5.5,10.8,12C64.3,62.5,62.5,64.4,60.2,65.8z"/>
</g>
</svg>
