<?xml version="1.0" encoding="utf-8"?>
<svg version="1.1" id="Ebene_1" xmlns="http://www.w3.org/2000/svg" xmlns:xlink="http://www.w3.org/1999/xlink" x="0px" y="0px" viewBox="0 0 32 28" style="enable-background:new 0 0 32 28;" xml:space="preserve"><path d="M31.7,9.2l-5.5-8.9C26.1,0.1,25.8,0,25.6,0H6.4C6.2,0,5.9,0.1,5.8,0.3L0.3,9.2C0.2,9.5,0.2,9.8,0.4,10l15.1,17.8c0.3,0.3,0.7,0.3,1,0L31.6,10C31.8,9.8,31.8,9.5,31.7,9.2z M19.1,2l3.1,6.8H9.8L12.9,2H19.1z M7.1,2h3.6L7.6,8.8H3.1L7.1,2z M3.6,10.5h4L12.1,21L3.6,10.5z M16,24.9L9.7,10.5h12.6L16,24.9z M19.9,21l4.5-10.5h4L19.9,21z M24.4,8.8L21.3,2h3.6l4.1,6.8H24.4z"/></svg>
