<?xml version="1.0" encoding="utf-8"?>
<!-- Generator: Adobe Illustrator 25.4.0, SVG Export Plug-In . SVG Version: 6.00 Build 0)  -->
<svg version="1.1" id="Ebene_1" xmlns="http://www.w3.org/2000/svg" xmlns:xlink="http://www.w3.org/1999/xlink" x="0px" y="0px"
	 viewBox="0 0 100 100" style="enable-background:new 0 0 100 100;" xml:space="preserve">
<path style="fill:#FFFFFF;" d="M63.3,31.9C58,28,52.4,25.8,48.3,25.4c-2.4-0.2-4.3,0.2-5.2,1.5c-0.9,1.3-0.7,3.2,0.3,5.4
	c1.7,3.9,5.6,8.4,11,12.2c5.4,3.8,10.9,6.1,15.1,6.5c2.3,0.2,4.3-0.2,5.2-1.5c1-1.3,0.7-3.2-0.3-5.4C72.7,40.3,68.7,35.7,63.3,31.9z
	"/>
<path style="fill:#FFFFFF;" d="M93,48.2c-3.5-8.1-11.7-17.7-22.9-25.7C58.9,14.4,47.2,9.7,38.4,9C32,8.5,27,10,24.5,13.6L6.9,38.2
	C4.3,41.7,4.4,46.9,7,52.8c3.5,8.1,11.7,17.7,23,25.7C41.1,86.6,52.9,91.3,61.7,92C68,92.5,73,91,75.6,87.4l17.6-24.5
	C95.7,59.3,95.6,54.1,93,48.2z M74.8,67.1c0.1-0.3,0.4-0.6,0.7-0.5c1.9,0.3,3.7,0.5,5.4,0.5c1.1,0,2.2-0.1,3.2-0.2
	c0.3-0.1,0.7,0.2,0.7,0.5c0.1,0.3-0.2,0.7-0.5,0.7c-1,0.2-2.2,0.2-3.4,0.2c-1.7,0-3.6-0.2-5.6-0.5C74.9,67.8,74.7,67.4,74.8,67.1z
	 M90.6,61.3c-2.1,2.7-6.1,3.6-11.1,3.2c-8.4-0.7-19.5-5.2-30.2-12.9C38.6,43.9,30.7,34.8,27.3,27c-2-4.6-2.4-8.7-0.5-11.5l0.1-0.2
	c2-2.9,6.1-3.8,11.2-3.4c8.4,0.7,19.5,5.2,30.2,12.9c10.7,7.7,18.6,16.7,22,24.5c2,4.7,2.4,8.9,0.4,11.7L90.6,61.3z M73.5,66.8
	c-0.1,0.3-0.3,0.5-0.6,0.5c0,0-0.1,0-0.1,0c-0.8-0.2-1.7-0.4-2.5-0.6c-0.3-0.1-0.5-0.4-0.4-0.8c0.1-0.3,0.4-0.5,0.8-0.4
	c0.8,0.2,1.7,0.4,2.5,0.6C73.4,66.1,73.6,66.5,73.5,66.8z M22.7,21.8c0.4,0,0.7,0.3,0.7,0.6c0,0.4,0,0.8,0.1,1.2
	c0,0.4-0.2,0.7-0.6,0.7c0,0,0,0-0.1,0c-0.3,0-0.6-0.2-0.6-0.6c0-0.4-0.1-0.9-0.1-1.3C22.1,22.1,22.3,21.8,22.7,21.8z M23.1,25.6
	c0.3-0.1,0.7,0.1,0.8,0.5c2.4,9.7,11.9,18.7,18.9,24.7c0.3,0.2,0.3,0.6,0.1,0.9c-0.1,0.1-0.3,0.2-0.5,0.2c-0.1,0-0.3-0.1-0.4-0.2
	c-7.1-6.1-16.8-15.4-19.3-25.4C22.6,26,22.8,25.6,23.1,25.6z"/>
</svg>
