<?xml version="1.0" encoding="utf-8"?>
<!-- Generator: Adobe Illustrator 25.2.0, SVG Export Plug-In . SVG Version: 6.00 Build 0)  -->
<svg version="1.1" id="Ebene_1" xmlns="http://www.w3.org/2000/svg" xmlns:xlink="http://www.w3.org/1999/xlink" x="0px" y="0px"
	 viewBox="0 0 100 100" style="enable-background:new 0 0 100 100;" xml:space="preserve">
<path style="fill:#FFFFFF;" d="M40.7,22.8c-1.1-0.2-1.1-0.2-0.6-0.3c1-0.1,3.3,0.1,4.9,0.4c3.7,0.9,7.1,3.1,10.7,7.1l1,1.1l1.4-0.2
	c5.7-0.9,11.6-0.2,16.5,2.1c1.3,0.6,3.5,1.9,3.7,2.2c0.1,0.1,0.2,0.8,0.3,1.4c0.4,2.4,0.2,4.3-0.6,5.6c-0.4,0.8-0.4,1-0.2,1.6
	c0.2,0.5,0.8,0.9,1.4,0.9c1.2,0,2.5-2,3.1-4.7l0.2-1.1l0.5,0.5c2.6,3,4.7,7,5,9.9l0.1,0.8l-0.4-0.7c-0.8-1.2-1.5-2-2.5-2.6
	c-1.8-1.2-3.6-1.6-8.5-1.8c-4.4-0.2-7-0.6-9.4-1.4c-4.2-1.4-6.4-3.2-11.4-9.8c-2.2-2.9-3.6-4.6-5-5.9C47.7,24.9,44.6,23.4,40.7,22.8
	z"/>
<path style="fill:#FFFFFF;" d="M79.1,29.3c0.1-2,0.4-3.3,0.9-4.4c0.2-0.5,0.4-0.9,0.4-0.9c0,0-0.1,0.3-0.2,0.8
	c-0.4,1.1-0.5,2.7-0.2,4.6c0.3,2.3,0.5,2.7,3,5.2c1.2,1.2,2.5,2.7,3,3.3l0.9,1.2L86,38.1c-1.1-1-3.6-3-4.1-3.3
	c-0.4-0.2-0.4-0.2-0.6,0c-0.2,0.2-0.3,0.5-0.3,2c0,2.3-0.4,3.8-1.1,5.3c-0.4,0.8-0.5,0.6-0.1-0.3c0.3-0.7,0.3-1,0.3-3.2
	c0-4.5-0.5-5.6-3.7-7.4c-0.8-0.5-2.1-1.1-2.9-1.5c-0.8-0.4-1.4-0.7-1.4-0.7c0.1-0.1,3.1,0.8,4.4,1.3c1.8,0.7,2.1,0.8,2.3,0.7
	C78.9,31,79,30.6,79.1,29.3z"/>
<path style="fill:#FFFFFF;" d="M42.8,37c-2.2-3-3.5-7.6-3.3-11.1l0.1-1.1l0.5,0.1c0.9,0.2,2.6,0.8,3.3,1.2c2.1,1.3,3,2.9,3.9,7.2
	c0.3,1.2,0.6,2.7,0.8,3.1c0.3,0.8,1.2,2.6,2,3.7c0.6,0.8,0.2,1.2-1.1,1.1C47.1,41.1,44.4,39.3,42.8,37z"/>
<path style="fill:#FFFFFF;" d="M76.4,59.4c-10.2-4.1-13.8-7.7-13.8-13.7c0-0.9,0-1.6,0.1-1.6c0,0,0.4,0.3,0.9,0.7
	c2.1,1.7,4.4,2.4,10.8,3.3c3.8,0.6,5.9,1,7.9,1.7c6.2,2.1,10.1,6.3,11,12c0.3,1.7,0.1,4.8-0.3,6.4c-0.3,1.3-1.4,3.6-1.7,3.7
	c-0.1,0-0.2-0.3-0.2-0.7c-0.1-2.2-1.2-4.2-3-5.8C86,63.6,83.2,62.2,76.4,59.4z"/>
<path style="fill:#FFFFFF;" d="M69.2,61.1c-0.1-0.8-0.4-1.7-0.5-2.2l-0.3-0.8l0.5,0.5c0.7,0.8,1.2,1.7,1.7,3c0.3,1,0.4,1.3,0.4,2.9
	c0,1.6,0,1.9-0.4,2.8c-0.5,1.4-1.1,2.4-2.2,3.4c-1.9,1.9-4.3,3-7.7,3.4c-0.6,0.1-2.4,0.2-3.9,0.3c-3.9,0.2-6.5,0.6-8.8,1.4
	c-0.3,0.1-0.6,0.2-0.7,0.2c-0.1-0.1,1.5-1,2.8-1.7c1.8-0.9,3.6-1.4,7.7-2c2-0.3,4.1-0.7,4.6-0.9C67.5,70,70.1,66,69.2,61.1z"/>
<path style="fill:#FFFFFF;" d="M73.9,69.5c-1.4-2.9-1.7-5.7-0.9-8.4c0.1-0.3,0.2-0.5,0.3-0.5c0.1,0,0.4,0.2,0.7,0.4
	c0.6,0.4,1.9,1.1,5.2,3c4.2,2.3,6.6,4,8.2,6.1c1.4,1.8,2.3,3.8,2.7,6.2c0.2,1.4,0.1,4.7-0.3,6.1c-1.1,4.4-3.7,7.9-7.5,9.9
	c-0.5,0.3-1,0.5-1.1,0.5c-0.1,0,0.1-0.5,0.4-1.1c1.3-2.6,1.4-5.2,0.4-8c-0.6-1.7-1.8-3.9-4.2-7.4C75.3,72,74.6,70.9,73.9,69.5z"/>
<path style="fill:#FFFFFF;" d="M35.5,85.2c3.8-3.2,8.5-5.5,12.8-6.2c1.9-0.3,4.9-0.2,6.7,0.3c2.8,0.7,5.2,2.3,6.5,4.2
	c1.3,1.8,1.8,3.4,2.3,7c0.2,1.4,0.5,2.8,0.5,3.1c0.4,1.8,1.2,3.3,2.3,4.1c1.6,1.2,4.4,1.3,7.1,0.2c0.5-0.2,0.9-0.3,0.9-0.3
	c0.1,0.1-1.3,1-2.2,1.5c-1.3,0.7-2.3,0.9-3.7,0.9c-2.5,0-4.6-1.3-6.3-3.9c-0.3-0.5-1.1-2-1.7-3.4c-1.8-4.2-2.7-5.4-4.8-6.8
	c-1.8-1.2-4.2-1.4-6-0.5c-2.4,1.2-3,4.2-1.3,6.1c0.7,0.8,1.9,1.4,2.9,1.5c1.9,0.2,3.6-1.2,3.6-3.1c0-1.3-0.5-2-1.7-2.5
	c-1.7-0.7-3.4,0.1-3.4,1.7c0,0.7,0.3,1.1,1,1.4c0.4,0.2,0.4,0.2,0.1,0.1c-1.5-0.3-1.9-2.1-0.7-3.4c1.5-1.5,4.5-0.8,5.5,1.2
	c0.4,0.8,0.5,2.5,0.1,3.5c-0.9,2.3-3.3,3.4-5.9,2.8c-1.7-0.4-2.4-0.9-4.5-3c-3.6-3.7-5-4.4-10.2-5.2l-1-0.2L35.5,85.2z"/>
<path style="fill-rule:evenodd;clip-rule:evenodd;fill:#FFFFFF;" d="M8.3,2.2c12,14.6,30.5,37.3,31.5,38.6c0.8,1,0.5,2-0.8,2.7
	c-0.7,0.4-2.2,0.8-3,0.8c-0.8,0-1.8-0.4-2.5-1.1c-0.5-0.5-2.5-3.4-7-10.5c-3.5-5.4-6.4-9.9-6.5-10c-0.2-0.2-0.2-0.2,6.1,11.1
	c4,7.1,5.3,9.6,5.3,9.9c0,0.7-0.2,1-1,2c-1.4,1.6-2,3.3-2.5,6.9c-0.5,4.1-1.9,6.9-5.9,11.9c-2.3,2.9-2.7,3.4-3.3,4.6
	c-0.7,1.5-0.9,2.3-1,4.1c-0.1,2,0.1,3.2,0.7,5.1c0.5,1.6,1.1,2.7,2.5,4.9c1.2,1.9,1.9,3.2,1.9,3.8c0,0.4,0.1,0.4,1.9,0
	c4.5-1,8.1-2.8,10.1-4.9c1.3-1.3,1.6-2.1,1.6-3.9c0-1.2,0-1.5-0.4-2.1c-0.5-1.1-1.5-2.1-3.6-3.5c-2.8-1.9-4-3.4-4.3-5.5
	c-0.3-1.7,0-3,1.6-6.2c1.6-3.3,2-4.8,2.3-8.1c0.2-2.2,0.4-3,1-3.7c0.7-0.7,1.2-1,2.9-1.2c2.6-0.4,4.3-1,5.7-2.3
	c1.2-1.1,1.7-2.2,1.8-3.8l0.1-1.2l-0.7-0.8C40.3,36.9,6.7,0,6.6,0C6.5,0,7.3,1,8.3,2.2z M24.2,75.6c0.5-1,0.3-2.2-0.7-2.8
	c-0.9-0.6-2.2-0.3-2.2,0.4c0,0.2,0.1,0.4,0.4,0.5c0.5,0.2,0.5,0.5,0.1,1.1c-0.4,0.6-0.4,1.1,0.1,1.4C22.7,76.8,23.7,76.5,24.2,75.6z
	"/>
<path style="fill-rule:evenodd;clip-rule:evenodd;fill:#FFFFFF;" d="M45.1,48.4c-1.2,0.4-2.4,1.7-2.8,3.1c-0.2,0.8-0.1,2.3,0.2,2.8
	c0.5,0.7,1.1,0.9,2.5,0.9c2.8,0,5.3-1.2,5.5-2.7c0.2-1.2-0.8-3-2.3-3.7C47.5,48.3,45.9,48.2,45.1,48.4z M48.4,51
	c0.4-0.6,0.2-1.3-0.5-1.7c-1.4-0.9-3.5-0.1-3.5,1.2c0,0.7,1.1,1.4,2.1,1.4C47.2,51.8,48.1,51.4,48.4,51z"/>
</svg>
