<?xml version="1.0" encoding="utf-8"?>
<svg version="1.1" xmlns="http://www.w3.org/2000/svg"  viewBox="0 0 100 100">
	<path d="M99.6,58.2c-0.2-2.1-1-3.5-1.4-4.3
		c-2.8-5.2-9.3-16.1-10.4-18.1c-0.3-0.5-0.8-1.4-1.2-2.6c-0.5-1.3-0.6-2.6-0.7-2.9c-0.1-0.5-0.1-0.5-0.2-0.9c0-0.2-0.2-1.7-0.9-3
		c-0.5-1.2-1.2-1.9-1.6-2.6c-0.2-0.2-0.4-0.5-0.6-0.7c1-0.2,1.7-0.5,1.7-0.5s-2.3-0.4-3.8-1.8c-0.1-0.1-0.2-0.2-0.3-0.3
		c0,0,0.1,0,0.2,0c2-0.1,4.5,0.5,4.5,0.5s-2.9-1.9-6.2-2.1c-0.1,0-0.1,0-0.2,0c2.1-0.6,3.6-1.7,3.6-1.7s-2.6,0.5-4.5,0.5
		c-0.3,0-0.5,0-0.9,0c-1.7-1.6-3-3.1-3.6-4.7c-0.2-0.5-0.4-1-0.6-1.5c0,0-0.3-8.6-0.4-8.6c-1.8-3.4-5.7,1-8.8,1.5
		c-9.8,1.7-15.9,8.4-24.4,14.9c-0.5,0.5-2.9,3.4-7,7.1c-0.9,0.8-1.8,1.9-2.9,3.5c-4.6,2-9.1,4.8-14.1,6.9C8,39.7,5.2,39.5,4.3,39.3
		c-0.1,0-0.2-0.1-0.3-0.1c0,0,0,0,0,0c0,0-0.1,0-0.1,0s0.4,0.5,1.1,1.1c0,0,0,0,0,0c0.4,0.4,0.8,0.8,1.4,1.2C7,42,7.5,42.4,8.4,43
		c1.4,0.9,1.5,1,3.1,1.7c1,0.5,2.7,1,4.9,1.3c-2,1.7-4.1,3.3-6.3,4.9c-6.5,4.5-9.2,4.3-9.7,4.2c0,0,0,0-0.1,0c0,0,0,0,0,0
		c0,0-0.1,0-0.1,0s0.2,0.1,0.4,0.3c0.7,0.4,1.4,0.9,2.3,1.2c1.5,0.6,1.3,0.5,3,1c1.7,0.4,1.8,0.5,4,0.8c1.4,0.2,2.5,0.3,3.4,0.2
		c-1.5,2.5-2.9,5-4.7,7.4c-5,6.7-7.7,6.4-7.7,6.4h0l0,0h0l0,0c0.9,0.5,2.4,0.9,4.5,1.2c3.2,0.4,4.8,0.5,7.4,0.2
		c1.4-0.2,2.4-0.4,3.4-0.7c0,0,0.1,0,0.1,0c1.3,7.4,4.4,14.8,5.4,18.6c2.9-1.1,26.6,4.3,37.5,6.3c0.5,0.1,0.9,0.1,1.4,0.2l0.7,0.1
		h0.8c1,0.1,2,0.1,3.1,0h0.2c-2.1-4.7-4.3-9.2-6.5-13.4c-2.2-4.3-6.1-11.7-11.8-22.3l-8.1-15.2c20.1,33,30.5,49.7,31.3,50.1l0,0.1
		c1-0.2,2.6-0.7,4.9-1.7c1.8-0.8,3.2-1.5,4.2-2.1c0.2-0.1,0.5-0.3,0.7-0.4c0,0,0,0,0,0c0,0,0.1,0,0.1,0c-3.5-4.3-8.5-10.8-14.9-19.6
		c-6.4-8.8-9.8-13.6-10.2-14.5l-1.8-4.2l-0.7-3.3c0-0.3,0-0.7,0-1l0.4-3.2l3.2-7.2c0,1.3,0.1,2.4,0.3,3.5c0.1,0.9,0.2,1.6,0.3,2.1
		c0.4,1.6,0.8,2.3,3.6,5.5c0,0,0.1,0.1,0.1,0.1c2.5,3.1,5.5,6.3,6.8,6.8c3.8,1.4,2.2-1,7.9,1.1c1.1,0.3,2.3,0.9,3.6,2.1
		c1.7,1.6,3.4,3.6,3.4,3.6c0.2,0.5,0.3,0.7,0.6,1.4c0.3,0.7,2.7,3.8,3.6,4.7c1,0.9,1.9,1.3,2.5,1.5c0.5,0.2,1,0.3,1.1,0.3
		c1.2,0.3,2.3,0.2,2.9,0.2c0.6-0.1,3.2-2.8,3.7-3.2c0.4-0.7,0.7-1.3,0.9-1.6c0.8-1.7,1.1-3.2,1.5-5.6C99.6,61,99.8,59.8,99.6,58.2z
		 M79.6,35.3l-5.1-2.6c-1-0.9-1.6-2.4-1.6-4.1v-2.1h0v0c0-0.7,1.1-1.4,1.7-1.3l6.3,10.3C80.9,35.7,80.5,35.6,79.6,35.3z M80.6,34.6
		c0.1,0.2,0.2,0.3,0.2,0.4L80.6,34.6z M75.3,49.1c2,2.9,3.9,5.4,5.8,7.6l-10.8-9l-1-0.3c-0.3-0.3-0.5-0.5-0.5-0.5
		C68.9,46.7,72,44.3,75.3,49.1z M38.9,47C38.9,47,38.9,47,38.9,47C38.9,47,38.9,47,38.9,47L38.9,47z M55.5,41.5
		c0.2-0.4,0.5-0.8,0.7-1.2c0,0,0,0,0,0.1L55.5,41.5z M98.2,60.2c-0.2,1.2-0.1,0.7-0.2,1.1c-0.2,0.7-0.4,2.1-0.6,2.7
		c-0.2,0.5-0.7,0.5-0.8,0.1c0-0.2-0.5-1.9-0.9-2.7c-0.2-0.6,0.5-2.6,1.1-3C97.5,58,98.3,59,98.2,60.2z"/>
	<path d="M65.6,98.4L65.6,98.4C65.6,98.4,65.6,98.4,65.6,98.4L65.6,98.4
		z"/>
	<path d="M73.4,11.5c0.5,1,1.1,2,1.9,3.1c0.8,1,1.4,1.6,1.8,1.8
		c0.1,0.1,0.2,0.1,0.3,0.2c0.2,0.1,0.2-0.3,0.1-0.9C77.4,15.2,77,7.1,77,7c-0.7-1.3-1.8-1.8-2.9-1.3l0,0c-0.2,0.1-0.3,0.1-0.5,0.2
		C73.4,6,73.3,6.1,73.2,6c0,0.7,0,1.5,0,2.5C73.2,9.5,73.3,10.5,73.4,11.5z"/>
</svg>
