<?xml version="1.0" encoding="utf-8"?>
<!-- Generator: Adobe Illustrator 25.2.0, SVG Export Plug-In . SVG Version: 6.00 Build 0)  -->
<svg version="1.1" id="Ebene_1" xmlns="http://www.w3.org/2000/svg" xmlns:xlink="http://www.w3.org/1999/xlink" x="0px" y="0px"
	 viewBox="0 0 100 100" style="enable-background:new 0 0 100 100;" xml:space="preserve">
<path d="M86.5,45V34.2c0-3.6-2.9-6.4-6.4-6.4H54.4c0.3-1.1,0.4-2.2,0.4-3.4c0-1.1-0.1-2.1-0.4-3.2c2.4,2.7,5.9,4.5,9.8,4.5
	c7.1,0,12.9-5.8,12.9-12.9S71.3,0,64.2,0c-7.1,0-12.9,5.8-12.9,12.9c0,1.1,0.1,2.1,0.4,3.2c-2.4-2.7-5.9-4.5-9.8-4.5
	c-7.1,0-12.9,5.8-12.9,12.9c0,1.1,0.2,2.3,0.4,3.4h-8.4c-3.6,0-6.4,2.9-6.4,6.4v43.3c0,3.6,2.9,6.4,6.4,6.4h58.9
	c3.6,0,6.4-2.9,6.4-6.4V66.6c3-0.3,5.3-2.9,5.3-5.9v-9.8C91.8,47.9,89.5,45.4,86.5,45z M64.2,5.4c4.1,0,7.4,3.3,7.4,7.4
	s-3.3,7.4-7.4,7.4c-4.1,0-7.4-3.3-7.4-7.4S60.1,5.4,64.2,5.4z M42,16.9c4.1,0,7.4,3.3,7.4,7.4c0,1.2-0.3,2.3-0.8,3.4H35.3
	c-0.5-1-0.8-2.2-0.8-3.4C34.5,20.3,37.9,16.9,42,16.9z M81.1,77.5c0,0.6-0.5,1-1,1H21.1c-0.6,0-1-0.5-1-1V34.2c0-0.6,0.5-1,1-1
	c1.2,0,57.5,0,58.9,0c0.6,0,1,0.5,1,1V45c-1.7,0-17.4,0-19.1,0c-3.2,0-5.8,2.6-5.8,5.8c0,2.3,0,9.3,0,10.2c0,3.2,2.6,5.8,5.8,5.8
	c1.7,0,17.4,0,19.1,0V77.5z M86.4,60.7c0,0.3-0.2,0.5-0.5,0.5c-0.9,0-22.5,0-23.7,0c-0.3,0-0.5-0.2-0.5-0.5v-1.8
	c0.6,0.3,1.2,0.6,1.9,0.6c2,0,3.6-1.6,3.6-3.6c0-2-1.6-3.6-3.6-3.6c-0.7,0-1.3,0.2-1.9,0.6v-1.8c0-0.3,0.2-0.5,0.5-0.5
	c1.2,0,22.8,0,23.7,0c0.3,0,0.5,0.2,0.5,0.5V60.7z"/>
</svg>
